<svg width="69" height="59" viewBox="0 0 69 59" fill="none" xmlns="http://www.w3.org/2000/svg">
<path d="M24.3005 26.0568C25.0495 26.0568 25.7678 26.3543 26.2974 26.8839C26.8271 27.4136 27.1246 28.1319 27.1246 28.8808V39.7602C27.1244 40.5095 26.8266 41.228 26.2967 41.7577C25.7668 42.2875 25.0482 42.5851 24.2989 42.5851H2.82568C2.07641 42.5851 1.35781 42.2875 0.827914 41.7577C0.29802 41.228 0.00021756 40.5095 0 39.7602V28.8808C-6.26293e-08 28.5098 0.0731003 28.1425 0.215124 27.7997C0.357148 27.457 0.565314 27.1456 0.827724 26.8834C1.09013 26.6211 1.40165 26.4131 1.74447 26.2713C2.08728 26.1295 2.45469 26.0566 2.82568 26.0568H24.3005Z" fill="#60A16D"/>
<path d="M43.5134 23.0883C43.8847 23.0882 44.2524 23.1612 44.5955 23.3033C44.9386 23.4453 45.2503 23.6536 45.5128 23.9162C45.7754 24.1787 45.9837 24.4904 46.1257 24.8335C46.2678 25.1766 46.3408 25.5443 46.3407 25.9156V36.7934C46.3406 37.1645 46.2674 37.5319 46.1252 37.8747C45.983 38.2175 45.7747 38.5289 45.5122 38.7912C45.2496 39.0534 44.9379 39.2614 44.595 39.4032C44.252 39.5449 43.8845 39.6177 43.5134 39.6174H22.0377C21.6668 39.6175 21.2995 39.5445 20.9569 39.4027C20.6142 39.2608 20.3028 39.0528 20.0406 38.7905C19.7783 38.5282 19.5703 38.2169 19.4284 37.8742C19.2865 37.5315 19.2135 37.1642 19.2137 36.7934V25.9156C19.2133 25.5445 19.2861 25.177 19.4279 24.834C19.5697 24.4911 19.7776 24.1794 20.0399 23.9168C20.3021 23.6543 20.6136 23.446 20.9564 23.3038C21.2991 23.1616 21.6666 23.0884 22.0377 23.0883H43.5134Z" fill="#C3443E"/>
<path d="M29.9512 33.9677C29.9513 34.3388 29.8782 34.7064 29.7362 35.0493C29.5942 35.3922 29.386 35.7038 29.1235 35.9662C28.861 36.2287 28.5493 36.4368 28.2064 36.5787C27.8634 36.7206 27.4958 36.7935 27.1246 36.7933H16.2477C15.8767 36.7933 15.5093 36.7202 15.1665 36.5782C14.8237 36.4362 14.5123 36.2281 14.2499 35.9657C13.9876 35.7033 13.7796 35.3918 13.6376 35.0489C13.4957 34.7061 13.4227 34.3387 13.4229 33.9677V12.4904C13.4231 11.7411 13.7209 11.0226 14.2508 10.4928C14.7807 9.96309 15.4993 9.6655 16.2485 9.6655H27.1246C27.4957 9.66539 27.8632 9.73837 28.2061 9.88028C28.5489 10.0222 28.8605 10.2302 29.123 10.4925C29.3854 10.7549 29.5936 11.0663 29.7357 11.4091C29.8779 11.7519 29.951 12.1193 29.9512 12.4904V33.9677Z" fill="#436FAE"/>
<path d="M32.917 53.1804C32.9175 53.5515 32.8448 53.9191 32.7031 54.2621C32.5614 54.6051 32.3536 54.9168 32.0914 55.1795C31.8292 55.4421 31.5179 55.6505 31.1751 55.7928C30.8323 55.935 30.4649 56.0084 30.0938 56.0086H19.2144C18.8432 56.0085 18.4755 55.9352 18.1325 55.7931C17.7896 55.6509 17.4779 55.4425 17.2155 55.1799C16.953 54.9173 16.7448 54.6055 16.6028 54.2625C16.4609 53.9194 16.3878 53.5517 16.3879 53.1804V31.7056C16.3884 30.9563 16.6864 30.2378 17.2164 29.7081C17.7464 29.1783 18.4651 28.8808 19.2144 28.8808H30.0938C30.4647 28.8809 30.8319 28.954 31.1745 29.0961C31.5171 29.2381 31.8283 29.4462 32.0905 29.7085C32.3526 29.9708 32.5606 30.2822 32.7024 30.6249C32.8442 30.9675 32.9171 31.3348 32.917 31.7056V53.1804Z" fill="#EED861"/>
<path d="M66.9217 2.11806C66.8093 2.01304 66.6936 1.91212 66.5722 1.81695L66.5402 1.79233C66.4262 1.70454 66.3105 1.61922 66.1899 1.54045L66.1259 1.49615C66.0094 1.4223 65.892 1.35092 65.7706 1.28611L65.7616 1.28201C65.5678 1.18099 65.3681 1.09194 65.1635 1.01535L65.0888 0.988278C64.9329 0.931665 64.7746 0.882439 64.6121 0.840595L64.4849 0.807774C64.334 0.773315 64.1805 0.745419 64.0263 0.725728C63.9771 0.718343 63.9295 0.709319 63.8803 0.703576C63.6787 0.67966 63.476 0.667334 63.2731 0.666656C63.1298 0.666656 62.9879 0.672399 62.8473 0.683886C62.4897 0.712937 62.1359 0.778085 61.7914 0.878336C61.6019 0.933069 61.4157 0.99826 61.2334 1.07361C60.9037 1.20966 60.5884 1.37842 60.2924 1.57737L48.8707 8.35524C46.4043 9.77793 45.5519 13.0983 47.1649 15.4728C48.1158 17.1793 49.824 18.1286 51.625 18.1286C52.4782 18.1286 53.43 17.9399 54.2825 17.3705L58.0779 15.1856V53.0091C58.0779 55.9504 60.3564 58.2264 63.2969 58.2264C66.1439 58.2264 68.6102 55.9504 68.6102 53.0091V6.00871C68.6107 5.27907 68.461 4.55713 68.1705 3.88781C67.8801 3.21848 67.455 2.61608 66.9217 2.11806Z" fill="white"/>
</svg>
