<svg width="80" height="80" viewBox="0 0 80 80" fill="none" xmlns="http://www.w3.org/2000/svg">
<path d="M29.3005 37.0569C30.0495 37.0569 30.7678 37.3544 31.2974 37.884C31.8271 38.4136 32.1246 39.1319 32.1246 39.8809V50.7603C32.1244 51.5096 31.8266 52.2281 31.2967 52.7578C30.7668 53.2876 30.0482 53.5852 29.2989 53.5852H7.82568C7.07641 53.5852 6.35781 53.2876 5.82791 52.7578C5.29802 52.2281 5.00022 51.5096 5 50.7603V39.8809C5 39.5099 5.0731 39.1426 5.21512 38.7998C5.35715 38.4571 5.56531 38.1457 5.82772 37.8835C6.09013 37.6212 6.40165 37.4132 6.74447 37.2714C7.08728 37.1296 7.45469 37.0567 7.82568 37.0569H29.3005Z" fill="#60A16D"/>
<path d="M48.5134 34.0884C48.8847 34.0883 49.2524 34.1613 49.5955 34.3034C49.9386 34.4454 50.2503 34.6537 50.5128 34.9162C50.7754 35.1788 50.9837 35.4905 51.1257 35.8336C51.2678 36.1767 51.3408 36.5444 51.3407 36.9157V47.7934C51.3406 48.1646 51.2674 48.532 51.1252 48.8748C50.983 49.2176 50.7747 49.529 50.5122 49.7913C50.2496 50.0535 49.9379 50.2615 49.595 50.4032C49.252 50.545 48.8845 50.6178 48.5134 50.6175H27.0377C26.6668 50.6176 26.2995 50.5446 25.9569 50.4027C25.6142 50.2609 25.3028 50.0528 25.0406 49.7906C24.7783 49.5283 24.5703 49.217 24.4284 48.8743C24.2865 48.5316 24.2135 48.1643 24.2137 47.7934V36.9157C24.2133 36.5446 24.2861 36.1771 24.4279 35.8341C24.5697 35.4912 24.7776 35.1795 25.0399 34.9169C25.3021 34.6544 25.6136 34.446 25.9564 34.3039C26.2991 34.1617 26.6666 34.0885 27.0377 34.0884H48.5134Z" fill="#C3443E"/>
<path d="M34.9512 44.9677C34.9513 45.3389 34.8782 45.7064 34.7362 46.0493C34.5942 46.3923 34.386 46.7038 34.1235 46.9663C33.861 47.2287 33.5493 47.4368 33.2064 47.5787C32.8634 47.7206 32.4958 47.7936 32.1246 47.7934H21.2477C20.8767 47.7934 20.5093 47.7203 20.1665 47.5783C19.8237 47.4362 19.5123 47.2281 19.2499 46.9657C18.9876 46.7033 18.7796 46.3918 18.6376 46.049C18.4957 45.7061 18.4227 45.3387 18.4229 44.9677V23.4904C18.4231 22.7411 18.7209 22.0226 19.2508 21.4929C19.7807 20.9631 20.4993 20.6655 21.2485 20.6655H32.1246C32.4957 20.6654 32.8632 20.7384 33.2061 20.8803C33.5489 21.0222 33.8605 21.2303 34.123 21.4926C34.3854 21.7549 34.5936 22.0663 34.7357 22.4091C34.8779 22.7519 34.951 23.1193 34.9512 23.4904V44.9677Z" fill="#436FAE"/>
<path d="M37.917 64.1805C37.9175 64.5516 37.8448 64.9192 37.7031 65.2622C37.5614 65.6052 37.3536 65.9169 37.0914 66.1795C36.8292 66.4422 36.5179 66.6506 36.1751 66.7928C35.8323 66.9351 35.4649 67.0084 35.0938 67.0087H24.2144C23.8432 67.0085 23.4755 66.9353 23.1325 66.7931C22.7896 66.6509 22.4779 66.4426 22.2155 66.18C21.953 65.9174 21.7448 65.6056 21.6028 65.2626C21.4609 64.9195 21.3878 64.5518 21.3879 64.1805V42.7057C21.3884 41.9564 21.6864 41.2379 22.2164 40.7081C22.7464 40.1784 23.4651 39.8809 24.2144 39.8809H35.0938C35.4647 39.881 35.8319 39.9541 36.1745 40.0961C36.5171 40.2382 36.8283 40.4463 37.0905 40.7086C37.3526 40.9709 37.5606 41.2823 37.7024 41.6249C37.8442 41.9676 37.9171 42.3349 37.917 42.7057V64.1805Z" fill="#EED861"/>
<path d="M71.9217 13.1181C71.8093 13.0131 71.6936 12.9122 71.5722 12.817L71.5402 12.7924C71.4262 12.7046 71.3105 12.6193 71.1899 12.5405L71.1259 12.4962C71.0094 12.4224 70.892 12.351 70.7706 12.2862L70.7616 12.2821C70.5678 12.1811 70.3681 12.092 70.1635 12.0154L70.0888 11.9884C69.9329 11.9318 69.7746 11.8825 69.6121 11.8407L69.4849 11.8079C69.334 11.7734 69.1805 11.7455 69.0263 11.7258C68.9771 11.7184 68.9295 11.7094 68.8803 11.7037C68.6787 11.6798 68.476 11.6674 68.2731 11.6667C68.1298 11.6667 67.9879 11.6725 67.8473 11.684C67.4897 11.713 67.1359 11.7782 66.7914 11.8784C66.6019 11.9332 66.4157 11.9984 66.2334 12.0737C65.9037 12.2098 65.5884 12.3785 65.2924 12.5775L53.8707 19.3553C51.4043 20.778 50.5519 24.0984 52.1649 26.4729C53.1158 28.1794 54.824 29.1287 56.625 29.1287C57.4782 29.1287 58.43 28.94 59.2825 28.3706L63.0779 26.1857V64.0092C63.0779 66.9505 65.3564 69.2265 68.2969 69.2265C71.1439 69.2265 73.6102 66.9505 73.6102 64.0092V17.0088C73.6107 16.2792 73.461 15.5572 73.1705 14.8879C72.8801 14.2186 72.455 13.6162 71.9217 13.1181Z" fill="black"/>
</svg>
