<svg width="18" height="24" viewBox="0 0 18 24" fill="none" xmlns="http://www.w3.org/2000/svg">
<path d="M17.9107 19.1441C17.605 17.6789 16.4634 16.4943 15.0014 16.1262C14.0014 15.8752 12.9965 16.0017 12.1156 16.4826L10.9872 13.9314L15.3052 3.5692C15.435 3.25721 15.5005 2.92857 15.5005 2.59215C15.5005 1.74111 15.0776 0.951088 14.3696 0.478924L13.7778 0.084384C13.6547 0.00188538 13.5014 -0.0215517 13.3608 0.0204007C13.2192 0.0614156 13.103 0.162992 13.0434 0.298224L9.00039 9.43931L4.95725 0.298271C4.89768 0.163039 4.78148 0.0614625 4.63987 0.0204476C4.49826 -0.0215517 4.34494 0.00188538 4.22288 0.0844309L3.63109 0.478971C2.92306 0.951088 2.5002 1.74111 2.5002 2.59215C2.5002 2.92857 2.56564 3.25716 2.69553 3.5692L7.0133 13.9323L5.88405 16.4831C5.303 16.1657 4.66138 16.0002 4.00022 16.0002C1.79414 16.0002 0.00012207 17.7945 0.00012207 20.0001C0.00012207 22.2056 1.79409 24 4.00022 24C6.20631 24 8.00033 22.2056 8.00033 20.0001C8.00033 18.521 8.48435 17.4398 8.99968 16.7005C9.50067 17.4176 9.96862 18.4444 9.99843 19.8575C10.0453 22.0694 11.7104 23.8862 13.7876 23.9946C13.8598 23.998 13.9311 24 14.0014 24C15.1743 24 16.272 23.4971 17.0396 22.6011C17.854 21.6505 18.1714 20.3902 17.9107 19.1441ZM4.00008 22.0001C2.89756 22.0001 2.0001 21.1031 2.0001 20.0001C2.0001 18.897 2.89756 18.0001 4.00008 18.0001C5.10261 18.0001 6.00006 18.897 6.00006 20.0001C6.00006 21.1031 5.10261 22.0001 4.00008 22.0001ZM8.99996 15.0002C8.44821 15.0002 8 14.5515 8 14.0002C8 13.449 8.44825 13.0002 8.99996 13.0002C9.55172 13.0002 9.99993 13.449 9.99993 14.0002C9.99993 14.5515 9.55172 15.0002 8.99996 15.0002ZM13.9999 22.0001C12.8974 22.0001 11.9999 21.1031 11.9999 20.0001C11.9999 18.897 12.8974 18.0001 13.9999 18.0001C15.1024 18.0001 15.9999 18.897 15.9999 20.0001C15.9999 21.1031 15.1024 22.0001 13.9999 22.0001Z" fill="#003383"/>
</svg>
