<svg width="1227" height="40" viewBox="0 0 1227 40" fill="none" xmlns="http://www.w3.org/2000/svg">
<rect y="19" width="1227" height="2" fill="#1A36A8"/>
<rect x="537" y="18" width="153" height="4" fill="white"/>
<circle cx="581" cy="20" r="20" fill="#9C0389"/>
<circle cx="581" cy="19.9998" r="18.6364" fill="#BC03A4"/>
<g filter="url(#filter0_d_1_765)">
<path fill-rule="evenodd" clip-rule="evenodd" d="M577.923 14.9386L582.95 14.4068C582.948 14.3479 582.943 14.2885 582.937 14.2287C582.774 12.6885 581.459 11.6915 580.136 11.8314C578.813 11.9713 577.735 13.2215 577.898 14.7616C577.905 14.8214 577.913 14.8805 577.923 14.9386ZM576.121 15.1292C576.113 15.0705 576.105 15.0114 576.099 14.9519C575.84 12.5001 577.563 10.3079 579.948 10.0556C582.333 9.80332 584.477 11.5864 584.736 14.0383C584.743 14.0978 584.748 14.1571 584.752 14.2163L587.994 13.8733L589.234 25.5936C589.441 27.5551 587.998 29.3157 586.011 29.5259L578.093 30.3634C576.105 30.5737 574.326 29.154 574.118 27.1925L572.879 15.4721L576.121 15.1292Z" fill="white"/>
</g>
<g filter="url(#filter1_i_1_765)">
<path d="M578.717 17.4266C578.763 17.866 578.444 18.2599 578.005 18.3064C577.566 18.3528 577.172 18.0343 577.125 17.5949C577.079 17.1556 577.397 16.7617 577.837 16.7152C578.276 16.6688 578.67 16.9873 578.717 17.4266Z" fill="#BC03A4"/>
<path d="M584.286 16.8374C584.332 17.2768 584.013 17.6706 583.574 17.7171C583.135 17.7636 582.741 17.4451 582.694 17.0057C582.648 16.5663 582.966 16.1725 583.406 16.126C583.845 16.0795 584.239 16.398 584.286 16.8374Z" fill="#BC03A4"/>
</g>
<path d="M569.276 33.1813C569.262 33.1674 569.253 33.1564 569.249 33.1485C569.258 33.1594 569.267 33.1704 569.276 33.1813C569.746 33.6584 575.579 37.5627 584.822 37.3288C582.571 38.6286 573.675 38.4329 569.276 33.1813Z" fill="white" fill-opacity="0.4"/>
<circle cx="644.362" cy="20" r="20" fill="#DB6100"/>
<circle cx="644.362" cy="19.9998" r="18.6364" fill="#FF7900"/>
<path d="M659.447 28.0174C659.437 28.0342 659.429 28.0458 659.422 28.0522C659.43 28.0406 659.439 28.029 659.447 28.0174C659.789 27.442 662.085 20.809 659.513 11.9279C661.342 13.7755 663.41 22.4298 659.447 28.0174Z" fill="white" fill-opacity="0.4"/>
<g filter="url(#filter2_d_1_765)">
<path d="M643.173 15.2102C643.173 17.2085 641.553 18.8285 639.554 18.8285C637.556 18.8285 635.936 17.2085 635.936 15.2102C635.936 13.2118 637.556 11.5918 639.554 11.5918C641.553 11.5918 643.173 13.2118 643.173 15.2102Z" fill="white"/>
</g>
<g filter="url(#filter3_d_1_765)">
<path d="M652.788 24.7902C652.788 26.7886 651.168 28.4086 649.17 28.4086C647.171 28.4086 645.551 26.7886 645.551 24.7902C645.551 22.7919 647.171 21.1719 649.17 21.1719C651.168 21.1719 652.788 22.7919 652.788 24.7902Z" fill="white"/>
</g>
<g filter="url(#filter4_d_1_765)">
<path d="M638.187 26.0558C637.641 25.5063 637.644 24.6184 638.194 24.0726L648.551 13.7854C649.101 13.2396 649.989 13.2427 650.535 13.7922C651.08 14.3417 651.077 15.2296 650.528 15.7753L640.17 26.0626C639.62 26.6083 638.732 26.6053 638.187 26.0558Z" fill="white"/>
</g>
<path d="M633.5 20C633.5 31.0457 624.546 40 613.5 40C602.454 40 593.5 31.0457 593.5 20C593.5 8.9543 602.454 0 613.5 0C624.546 0 633.5 8.9543 633.5 20Z" fill="#F0A200"/>
<path d="M632.136 20.0003C632.136 30.2929 623.792 38.6367 613.5 38.6367C603.207 38.6367 594.864 30.2929 594.864 20.0003C594.864 9.70774 603.207 1.36395 613.5 1.36395C623.792 1.36395 632.136 9.70774 632.136 20.0003Z" fill="#FFC900"/>
<path d="M613.909 2.75349C613.929 2.75451 613.943 2.75645 613.951 2.75922C613.937 2.75728 613.923 2.75537 613.909 2.75349C613.241 2.71836 606.301 3.77376 599.638 10.1842C600.422 7.70578 607.119 1.8467 613.909 2.75349Z" fill="white" fill-opacity="0.4"/>
<g filter="url(#filter5_d_1_765)">
<path d="M608.01 17.4512C608.01 19.0756 607.044 20.3924 605.853 20.3924C604.662 20.3924 603.696 19.0756 603.696 17.4512C603.696 15.8269 604.662 14.5101 605.853 14.5101C607.044 14.5101 608.01 15.8269 608.01 17.4512Z" fill="white"/>
</g>
<g filter="url(#filter6_d_1_765)">
<path d="M622.912 17.4512C622.912 19.0756 621.946 20.3924 620.755 20.3924C619.564 20.3924 618.598 19.0756 618.598 17.4512C618.598 15.8269 619.564 14.5101 620.755 14.5101C621.946 14.5101 622.912 15.8269 622.912 17.4512Z" fill="white"/>
</g>
<g filter="url(#filter7_d_1_765)">
<path d="M620.838 24.1806C619.948 26.1569 613.867 38.4144 605.826 24.2241C605.753 24.0941 605.84 23.922 605.99 23.922H620.659C620.798 23.922 620.896 24.0536 620.838 24.1806Z" fill="white"/>
</g>
<defs>
<filter id="filter0_d_1_765" x="565.879" y="9.0318" width="24.3752" height="28.3522" filterUnits="userSpaceOnUse" color-interpolation-filters="sRGB">
<feFlood flood-opacity="0" result="BackgroundImageFix"/>
<feColorMatrix in="SourceAlpha" type="matrix" values="0 0 0 0 0 0 0 0 0 0 0 0 0 0 0 0 0 0 127 0" result="hardAlpha"/>
<feOffset dx="-3" dy="3"/>
<feGaussianBlur stdDeviation="2"/>
<feComposite in2="hardAlpha" operator="out"/>
<feColorMatrix type="matrix" values="0 0 0 0 0.437355 0 0 0 0 0 0 0 0 0 0.383043 0 0 0 0.67 0"/>
<feBlend mode="normal" in2="BackgroundImageFix" result="effect1_dropShadow_1_765"/>
<feBlend mode="normal" in="SourceGraphic" in2="effect1_dropShadow_1_765" result="shape"/>
</filter>
<filter id="filter1_i_1_765" x="577.121" y="16.1215" width="7.1691" height="2.18939" filterUnits="userSpaceOnUse" color-interpolation-filters="sRGB">
<feFlood flood-opacity="0" result="BackgroundImageFix"/>
<feBlend mode="normal" in="SourceGraphic" in2="BackgroundImageFix" result="shape"/>
<feColorMatrix in="SourceAlpha" type="matrix" values="0 0 0 0 0 0 0 0 0 0 0 0 0 0 0 0 0 0 127 0" result="hardAlpha"/>
<feOffset/>
<feGaussianBlur stdDeviation="2"/>
<feComposite in2="hardAlpha" operator="arithmetic" k2="-1" k3="1"/>
<feColorMatrix type="matrix" values="0 0 0 0 0 0 0 0 0 0 0 0 0 0 0 0 0 0 0.49 0"/>
<feBlend mode="normal" in2="shape" result="effect1_innerShadow_1_765"/>
</filter>
<filter id="filter2_d_1_765" x="635.936" y="11.5918" width="7.83676" height="9.23676" filterUnits="userSpaceOnUse" color-interpolation-filters="sRGB">
<feFlood flood-opacity="0" result="BackgroundImageFix"/>
<feColorMatrix in="SourceAlpha" type="matrix" values="0 0 0 0 0 0 0 0 0 0 0 0 0 0 0 0 0 0 127 0" result="hardAlpha"/>
<feOffset dx="0.6" dy="2"/>
<feComposite in2="hardAlpha" operator="out"/>
<feColorMatrix type="matrix" values="0 0 0 0 0.854902 0 0 0 0 0.384314 0 0 0 0 0 0 0 0 0.59 0"/>
<feBlend mode="normal" in2="BackgroundImageFix" result="effect1_dropShadow_1_765"/>
<feBlend mode="normal" in="SourceGraphic" in2="effect1_dropShadow_1_765" result="shape"/>
</filter>
<filter id="filter3_d_1_765" x="645.551" y="21.1719" width="7.83676" height="9.23676" filterUnits="userSpaceOnUse" color-interpolation-filters="sRGB">
<feFlood flood-opacity="0" result="BackgroundImageFix"/>
<feColorMatrix in="SourceAlpha" type="matrix" values="0 0 0 0 0 0 0 0 0 0 0 0 0 0 0 0 0 0 127 0" result="hardAlpha"/>
<feOffset dx="0.6" dy="2"/>
<feComposite in2="hardAlpha" operator="out"/>
<feColorMatrix type="matrix" values="0 0 0 0 0.854902 0 0 0 0 0.384314 0 0 0 0 0 0 0 0 0.59 0"/>
<feBlend mode="normal" in2="BackgroundImageFix" result="effect1_dropShadow_1_765"/>
<feBlend mode="normal" in="SourceGraphic" in2="effect1_dropShadow_1_765" result="shape"/>
</filter>
<filter id="filter4_d_1_765" x="637.779" y="13.3781" width="13.7625" height="15.0919" filterUnits="userSpaceOnUse" color-interpolation-filters="sRGB">
<feFlood flood-opacity="0" result="BackgroundImageFix"/>
<feColorMatrix in="SourceAlpha" type="matrix" values="0 0 0 0 0 0 0 0 0 0 0 0 0 0 0 0 0 0 127 0" result="hardAlpha"/>
<feOffset dx="0.6" dy="2"/>
<feComposite in2="hardAlpha" operator="out"/>
<feColorMatrix type="matrix" values="0 0 0 0 0.854902 0 0 0 0 0.384314 0 0 0 0 0 0 0 0 0.59 0"/>
<feBlend mode="normal" in2="BackgroundImageFix" result="effect1_dropShadow_1_765"/>
<feBlend mode="normal" in="SourceGraphic" in2="effect1_dropShadow_1_765" result="shape"/>
</filter>
<filter id="filter5_d_1_765" x="603.696" y="14.5101" width="4.81372" height="6.28232" filterUnits="userSpaceOnUse" color-interpolation-filters="sRGB">
<feFlood flood-opacity="0" result="BackgroundImageFix"/>
<feColorMatrix in="SourceAlpha" type="matrix" values="0 0 0 0 0 0 0 0 0 0 0 0 0 0 0 0 0 0 127 0" result="hardAlpha"/>
<feOffset dx="0.5" dy="0.4"/>
<feComposite in2="hardAlpha" operator="out"/>
<feColorMatrix type="matrix" values="0 0 0 0 0.941176 0 0 0 0 0.635294 0 0 0 0 0 0 0 0 0.41 0"/>
<feBlend mode="normal" in2="BackgroundImageFix" result="effect1_dropShadow_1_765"/>
<feBlend mode="normal" in="SourceGraphic" in2="effect1_dropShadow_1_765" result="shape"/>
</filter>
<filter id="filter6_d_1_765" x="618.598" y="14.5101" width="4.81372" height="6.28232" filterUnits="userSpaceOnUse" color-interpolation-filters="sRGB">
<feFlood flood-opacity="0" result="BackgroundImageFix"/>
<feColorMatrix in="SourceAlpha" type="matrix" values="0 0 0 0 0 0 0 0 0 0 0 0 0 0 0 0 0 0 127 0" result="hardAlpha"/>
<feOffset dx="0.5" dy="0.4"/>
<feComposite in2="hardAlpha" operator="out"/>
<feColorMatrix type="matrix" values="0 0 0 0 0.941176 0 0 0 0 0.635294 0 0 0 0 0 0 0 0 0.41 0"/>
<feBlend mode="normal" in2="BackgroundImageFix" result="effect1_dropShadow_1_765"/>
<feBlend mode="normal" in="SourceGraphic" in2="effect1_dropShadow_1_765" result="shape"/>
</filter>
<filter id="filter7_d_1_765" x="605.8" y="23.922" width="15.5554" height="7.45884" filterUnits="userSpaceOnUse" color-interpolation-filters="sRGB">
<feFlood flood-opacity="0" result="BackgroundImageFix"/>
<feColorMatrix in="SourceAlpha" type="matrix" values="0 0 0 0 0 0 0 0 0 0 0 0 0 0 0 0 0 0 127 0" result="hardAlpha"/>
<feOffset dx="0.5" dy="0.4"/>
<feComposite in2="hardAlpha" operator="out"/>
<feColorMatrix type="matrix" values="0 0 0 0 0.941176 0 0 0 0 0.635294 0 0 0 0 0 0 0 0 0.41 0"/>
<feBlend mode="normal" in2="BackgroundImageFix" result="effect1_dropShadow_1_765"/>
<feBlend mode="normal" in="SourceGraphic" in2="effect1_dropShadow_1_765" result="shape"/>
</filter>
</defs>
</svg>
