<svg width="244" height="244" viewBox="0 0 244 244" fill="none" xmlns="http://www.w3.org/2000/svg">
<circle cx="122" cy="122" r="122" fill="#BBBBBB"/>
<circle cx="122" cy="122" r="115" fill="#1A36A8"/>
<path d="M180.855 136.689L172.781 128.614C172.392 128.239 171.871 128.031 171.33 128.036C170.789 128.04 170.272 128.257 169.89 128.64C169.507 129.022 169.29 129.539 169.286 130.08C169.281 130.621 169.489 131.142 169.864 131.531L177.939 139.606C179.099 140.766 179.751 142.339 179.751 143.98C179.751 145.621 179.099 147.194 177.939 148.355L148.28 178.011C147.127 179.157 145.571 179.804 143.945 179.815C142.32 179.825 140.755 179.198 139.587 178.067L80.1581 120.144C79.7664 119.761 79.2387 119.549 78.691 119.555C78.1433 119.562 77.6205 119.785 77.2376 120.177C76.8547 120.568 76.643 121.096 76.6492 121.644C76.6554 122.192 76.8789 122.714 77.2706 123.097L136.708 181.023C138.655 182.906 141.263 183.95 143.972 183.933C146.68 183.915 149.274 182.836 151.197 180.928L180.855 151.271C182.789 149.337 183.875 146.715 183.875 143.98C183.875 141.246 182.789 138.623 180.855 136.689Z" fill="white"/>
<path d="M64.25 104.63V64.25H102.584L124.939 86.6054C119.297 88.2586 113.441 89.0655 107.562 89C100.385 89.1706 93.2471 87.8962 86.5724 85.2524C88.1298 83.4184 88.9895 81.0935 89 78.6875C89 76.6479 88.3952 74.6541 87.262 72.9582C86.1289 71.2623 84.5183 69.9405 82.6339 69.16C80.7496 68.3795 78.6761 68.1752 76.6756 68.5732C74.6752 68.9711 72.8377 69.9532 71.3955 71.3955C69.9532 72.8377 68.9711 74.6752 68.5732 76.6756C68.1752 78.6761 68.3795 80.7496 69.16 82.6339C69.9405 84.5183 71.2623 86.1289 72.9582 87.262C74.6541 88.3952 76.6479 89 78.6875 89C80.1628 88.9945 81.6193 88.6694 82.9569 88.0471C88.9753 91.3739 98.4339 93.125 107.562 93.125C114.573 93.2085 121.547 92.1018 128.187 89.8518L152.084 113.75L118.479 147.354C118.282 147.545 118.125 147.772 118.017 148.024C117.909 148.275 117.852 148.546 117.85 148.82C117.847 149.094 117.9 149.365 118.003 149.619C118.107 149.872 118.26 150.103 118.454 150.296C118.647 150.49 118.878 150.643 119.131 150.747C119.385 150.85 119.656 150.903 119.93 150.9C120.204 150.898 120.475 150.841 120.726 150.733C120.978 150.625 121.205 150.468 121.396 150.271L155 116.666L164.032 125.698C164.421 126.074 164.942 126.282 165.482 126.277C166.023 126.272 166.541 126.055 166.923 125.673C167.305 125.291 167.522 124.773 167.527 124.232C167.532 123.692 167.324 123.171 166.948 122.782L132.199 88.0327C136.052 85.9062 138.5 83.1178 138.5 79.7188C138.5 71.6276 124.582 66.9416 110.549 66.3826L104.896 60.7293C104.509 60.3425 103.984 60.1251 103.438 60.125H62.1875C61.6405 60.125 61.1159 60.3423 60.7291 60.7291C60.3423 61.1159 60.125 61.6405 60.125 62.1875V105.5C60.1245 105.775 60.179 106.047 60.2852 106.301C60.3915 106.554 60.5474 106.784 60.7438 106.977L71.3677 117.333C71.5616 117.522 71.791 117.672 72.0427 117.773C72.2944 117.874 72.5636 117.924 72.8348 117.921C73.106 117.918 73.3739 117.861 73.6233 117.755C73.8727 117.648 74.0986 117.493 74.2882 117.3C74.4778 117.106 74.6273 116.876 74.7283 116.625C74.8292 116.373 74.8796 116.104 74.8765 115.832C74.8735 115.561 74.817 115.293 74.7104 115.044C74.6038 114.795 74.4491 114.569 74.2552 114.379L64.25 104.63ZM80.75 79.7188C80.75 78.3905 81.9256 76.9158 84.0026 75.5711C84.7202 76.7627 85.0081 78.1641 84.8182 79.5421C84.6283 80.9201 83.9721 82.1915 82.9589 83.1446C82.3593 82.7736 81.8499 82.2736 81.4677 81.681C81.0856 81.0884 80.8404 80.4181 80.75 79.7188ZM72.5 78.6875C72.5 77.0465 73.1519 75.4727 74.3123 74.3123C75.4727 73.1519 77.0465 72.5 78.6875 72.5C79.3749 72.5074 80.0562 72.6309 80.7026 72.8651C79.5245 73.5983 78.5394 74.6033 77.83 75.7958C77.1205 76.9883 76.7073 78.3336 76.625 79.7188C76.6695 81.6502 77.4449 83.4929 78.7948 84.875C78.7597 84.875 78.7246 84.875 78.6875 84.875C77.0465 84.875 75.4727 84.2231 74.3123 83.0627C73.1519 81.9023 72.5 80.3285 72.5 78.6875ZM134.375 79.7188C134.375 81.5069 132.44 83.3756 129.136 84.9699L115 70.8335C126.647 72.1019 134.375 76.1919 134.375 79.7188Z" fill="white"/>
<path d="M138.242 118.001C138.629 118.388 139.154 118.605 139.701 118.605C140.248 118.604 140.773 118.387 141.16 118C141.546 117.613 141.763 117.088 141.763 116.541C141.763 115.994 141.546 115.469 141.159 115.082L136.782 110.708C136.465 110.391 136.053 110.186 135.609 110.124C135.165 110.061 134.713 110.146 134.321 110.363L124.432 115.858L104.698 96.1239C104.476 95.902 104.207 95.7336 103.911 95.6314C103.614 95.5292 103.298 95.496 102.987 95.5341C102.676 95.5723 102.378 95.6809 102.115 95.8518C101.852 96.0226 101.631 96.2511 101.47 96.5199L92.7125 111.106C92.4761 111.5 92.3781 111.962 92.4341 112.418C92.4902 112.874 92.6971 113.299 93.0219 113.624L93.3086 113.911C92.6605 114.192 92.0692 114.589 91.5637 115.082C90.4029 116.244 89.7512 117.819 89.7517 119.461C89.7523 121.103 90.4052 122.678 91.5668 123.839C92.7284 124.999 94.3035 125.651 95.9456 125.651C97.5877 125.65 99.1624 124.997 100.323 123.836C100.816 123.333 101.219 122.749 101.513 122.109L103.237 123.834L103.503 124.1C102.864 124.394 102.28 124.797 101.777 125.29C100.632 126.453 99.9935 128.022 99.9999 129.654C100.006 131.286 100.658 132.85 101.812 134.004C102.966 135.159 104.529 135.81 106.161 135.817C107.794 135.824 109.363 135.186 110.526 134.041C111.361 133.202 111.937 132.141 112.186 130.984C112.436 129.828 112.349 128.624 111.935 127.515L134.959 114.728L138.242 118.001ZM97.4047 120.917C97.2144 121.114 96.9868 121.271 96.7352 121.379C96.4836 121.487 96.2129 121.544 95.9391 121.547C95.6652 121.549 95.3936 121.497 95.1402 121.393C94.8867 121.29 94.6564 121.136 94.4627 120.943C94.2691 120.749 94.1159 120.519 94.0122 120.265C93.9085 120.012 93.8564 119.74 93.8587 119.466C93.8611 119.193 93.918 118.922 94.0261 118.67C94.1342 118.419 94.2913 118.191 94.4883 118.001C94.875 117.615 95.3991 117.398 95.9455 117.398C96.4919 117.398 97.0159 117.615 97.4026 118.001C97.7898 118.387 98.0078 118.911 98.0086 119.458C98.0093 120.005 97.7929 120.53 97.4068 120.917H97.4047ZM107.612 122.375L110.528 119.459L113.179 122.109L109.429 124.192L107.612 122.375ZM104.696 119.459L101.788 116.543L104.704 113.624L107.62 116.543L104.696 119.459ZM99.2712 108.2L101.788 110.708L98.8711 113.624L97.0912 111.846L99.2712 108.2ZM107.612 110.708L110.528 107.791L113.447 110.708L110.528 113.624L107.612 110.708ZM103.644 100.909L107.614 104.881L104.698 107.798L101.462 104.562L103.644 100.909ZM107.608 131.127C107.319 131.415 106.952 131.611 106.552 131.69C106.152 131.77 105.737 131.729 105.36 131.573C104.984 131.416 104.662 131.152 104.435 130.813C104.209 130.474 104.088 130.075 104.088 129.667C104.088 129.26 104.209 128.861 104.435 128.522C104.662 128.183 104.984 127.918 105.36 127.762C105.737 127.606 106.152 127.565 106.552 127.644C106.952 127.724 107.319 127.92 107.608 128.208C107.8 128.399 107.953 128.626 108.057 128.877C108.161 129.127 108.215 129.395 108.216 129.666C108.216 129.937 108.164 130.206 108.06 130.456C107.957 130.707 107.805 130.935 107.614 131.127H107.608ZM116.924 120.026L113.441 116.543L116.359 113.624L120.676 117.941L116.924 120.026Z" fill="white"/>
<path d="M167.375 148.812C167.375 148.265 167.158 147.741 166.771 147.354C166.384 146.967 165.86 146.75 165.312 146.75H136.438C135.89 146.75 135.366 146.967 134.979 147.354C134.592 147.741 134.375 148.265 134.375 148.812C134.375 149.36 134.592 149.884 134.979 150.271C135.366 150.658 135.89 150.875 136.438 150.875H165.312C165.86 150.875 166.384 150.658 166.771 150.271C167.158 149.884 167.375 149.36 167.375 148.812Z" fill="white"/>
<path d="M144.688 161.187C144.688 162.411 145.05 163.608 145.73 164.625C146.41 165.643 147.377 166.436 148.507 166.904C149.638 167.372 150.882 167.495 152.082 167.256C153.282 167.017 154.385 166.428 155.25 165.563C156.116 164.697 156.705 163.595 156.944 162.395C157.182 161.194 157.06 159.95 156.592 158.82C156.123 157.689 155.33 156.723 154.313 156.043C153.295 155.363 152.099 155 150.875 155C149.234 155 147.66 155.652 146.5 156.812C145.339 157.973 144.688 159.546 144.688 161.187ZM152.938 161.187C152.938 161.595 152.817 161.994 152.59 162.333C152.363 162.673 152.041 162.937 151.664 163.093C151.287 163.249 150.873 163.29 150.473 163.21C150.073 163.131 149.705 162.934 149.417 162.646C149.128 162.357 148.932 161.99 148.852 161.59C148.773 161.19 148.813 160.775 148.97 160.398C149.126 160.021 149.39 159.699 149.729 159.473C150.068 159.246 150.467 159.125 150.875 159.125C151.422 159.125 151.947 159.342 152.333 159.729C152.72 160.116 152.938 160.64 152.938 161.187Z" fill="white"/>
<path d="M157.063 136.438C157.063 135.214 156.7 134.017 156.02 133C155.34 131.982 154.373 131.189 153.243 130.721C152.112 130.253 150.868 130.13 149.668 130.369C148.468 130.608 147.365 131.197 146.5 132.062C145.634 132.928 145.045 134.03 144.806 135.23C144.568 136.431 144.69 137.675 145.159 138.805C145.627 139.936 146.42 140.902 147.437 141.582C148.455 142.262 149.651 142.625 150.875 142.625C152.516 142.625 154.09 141.973 155.25 140.813C156.411 139.652 157.063 138.079 157.063 136.438ZM148.813 136.438C148.813 136.03 148.933 135.631 149.16 135.292C149.387 134.952 149.709 134.688 150.086 134.532C150.463 134.376 150.877 134.335 151.277 134.415C151.677 134.494 152.045 134.691 152.333 134.979C152.622 135.268 152.818 135.635 152.898 136.035C152.977 136.435 152.937 136.85 152.781 137.227C152.624 137.604 152.36 137.926 152.021 138.152C151.682 138.379 151.283 138.5 150.875 138.5C150.328 138.5 149.803 138.283 149.417 137.896C149.03 137.509 148.813 136.985 148.813 136.438Z" fill="white"/>
</svg>
