<svg width="104" height="40" viewBox="0 0 104 40" fill="none" xmlns="http://www.w3.org/2000/svg">
<path d="M21.7641 36.9934C31.1492 36.9934 38.7573 29.3853 38.7573 20.0002C38.7573 10.6151 31.1492 3.00705 21.7641 3.00705C12.379 3.00705 4.77094 10.6151 4.77094 20.0002C4.77094 29.3853 12.379 36.9934 21.7641 36.9934Z" fill="url(#paint0_linear_1_932)"/>
<mask id="mask0_1_932" style="mask-type:alpha" maskUnits="userSpaceOnUse" x="3" y="3" width="14" height="22">
<path d="M13.5695 16.0847C10.5603 21.7074 6.38487 25.3309 4.25031 24.1856C2.11575 23.0402 2.8238 17.5528 5.833 11.9405C8.84221 6.32816 13.0176 2.6942 15.1522 3.83958C17.2867 4.98495 16.5787 10.4619 13.5695 16.0847Z" fill="url(#paint1_linear_1_932)"/>
</mask>
<g mask="url(#mask0_1_932)">
<path opacity="0.0476" d="M11.9243 8.08838C8.15496 12.42 6.34319 18.2093 6.25989 23.8841C3.74007 16.6162 7.83217 7.71353 14.9855 4.90216C13.9026 5.90176 12.8718 6.95342 11.9243 8.08838Z" fill="white"/>
<path opacity="0.0952" d="M11.8514 8.13018C8.14457 12.3785 6.3328 18.1574 6.2495 23.7072C3.87545 16.5435 7.85302 7.79698 14.871 4.98561C13.809 5.96438 12.7885 7.01604 11.8514 8.13018Z" fill="white"/>
<path opacity="0.1429" d="M11.7785 8.17156C8.13412 12.347 6.32235 18.1051 6.23905 23.5404C4.01078 16.4703 7.88422 7.88001 14.7773 5.05823C13.7152 6.037 12.6948 7.06784 11.7785 8.17156Z" fill="white"/>
<path opacity="0.1905" d="M11.6952 8.22328C8.11335 12.3154 6.30158 18.0527 6.21828 23.3838C4.12537 16.4075 7.9051 7.97338 14.6628 5.1516C13.6111 6.09913 12.6115 7.12997 11.6952 8.22328Z" fill="white"/>
<path opacity="0.2381" d="M11.6223 8.26515C8.09252 12.274 6.30157 18.0008 6.20786 23.2071C4.26073 16.3348 7.93633 8.0569 14.5587 5.21429C13.5174 6.17224 12.5178 7.18225 11.6223 8.26515Z" fill="white"/>
<path opacity="0.2857" d="M11.5495 8.31733C8.08211 12.2532 6.29116 17.9593 6.19745 23.051C4.39609 16.2725 7.96757 8.15073 14.4545 5.30812C13.4237 6.23483 12.4345 7.24484 11.5495 8.31733Z" fill="white"/>
<path opacity="0.3333" d="M11.4765 8.35871C8.07166 12.2113 6.28071 17.9069 6.187 22.8841C4.521 16.2097 8.00919 8.24417 14.3504 5.38074C13.33 6.29704 12.3512 7.29663 11.4765 8.35871Z" fill="white"/>
<path opacity="0.381" d="M11.3933 8.40051C8.05089 12.1802 6.27035 17.855 6.16623 22.7073C4.63559 16.137 8.03006 8.32762 14.2359 5.46419C13.2259 6.37007 12.2575 7.35926 11.3933 8.40051Z" fill="white"/>
<path opacity="0.4286" d="M11.3204 8.45272C8.04045 12.1491 6.25991 17.8031 6.15579 22.5512C4.76052 16.0747 8.07169 8.42148 14.1317 5.54764C13.1322 6.4327 12.1742 7.41147 11.3204 8.45272Z" fill="white"/>
<path opacity="0.4762" d="M11.2475 8.4941C8.03005 12.1072 6.24952 17.7508 6.14539 22.3843C4.88548 16.0015 8.10294 8.50451 14.0276 5.62025C13.0385 6.50532 12.0909 7.47368 11.2475 8.4941Z" fill="white"/>
<path opacity="0.5238" d="M11.1746 8.5359C8.0092 12.0866 6.2495 17.6781 6.12455 22.2075C4.98959 15.9288 8.13415 8.58796 13.9131 5.7037C12.9343 6.56794 11.9972 7.52589 11.1746 8.5359Z" fill="white"/>
<path opacity="0.5714" d="M11.0913 8.5881C7.97798 12.0971 6.2391 17.6053 6.10373 22.0514C5.09372 15.8768 8.17582 8.6714 13.7986 5.78714C12.8406 6.64096 11.9139 7.5885 11.0913 8.5881Z" fill="white"/>
<path opacity="0.619" d="M11.0185 8.62997C7.95719 12.0765 6.23913 17.5326 6.09336 21.8746C5.2083 15.7938 8.22792 8.74451 13.6945 5.84984C12.7469 6.70366 11.8306 7.64078 11.0185 8.62997Z" fill="white"/>
<path opacity="0.6667" d="M10.9456 8.68169C7.92595 12.0866 6.23913 17.4594 6.08294 21.7181C5.31242 15.7413 8.29039 8.81705 13.6008 5.94321C12.6532 6.77621 11.7369 7.70292 10.9456 8.68169Z" fill="white"/>
<path opacity="0.7143" d="M10.8727 8.72349C7.89469 12.0763 6.24952 17.3658 6.07251 21.5517C5.41652 15.679 8.35284 8.89009 13.4966 6.02666C12.5491 6.83883 11.6536 7.75513 10.8727 8.72349Z" fill="white"/>
<path opacity="0.7619" d="M10.7893 8.76487C7.85299 12.0864 6.24947 17.2823 6.05164 21.3848C5.51019 15.6163 8.41527 8.95229 13.382 6.09927C12.4553 6.90103 11.5598 7.81733 10.7893 8.76487Z" fill="white"/>
<path opacity="0.8095" d="M10.7164 8.81708C7.82176 12.0866 6.24947 17.1887 6.04122 21.2183C5.6039 15.554 8.49857 9.01492 13.2779 6.18272C12.3616 6.97407 11.4765 7.86955 10.7164 8.81708Z" fill="white"/>
<path opacity="0.8571" d="M10.6436 8.85833C7.79058 12.0862 6.24953 17.1154 6.03087 21.0513C5.76014 15.8763 7.95718 10.5764 11.8827 7.1611C11.9972 7.01532 13.33 6.00531 13.1738 6.25521C12.2679 7.03615 11.3933 7.93162 10.6436 8.85833Z" fill="white"/>
<path opacity="0.9048" d="M10.5603 8.90062C7.73851 12.1077 6.24952 17.0536 6.01003 20.875C5.84343 16.0228 7.81139 11.1185 11.2787 7.72401C11.6328 7.3804 12.0076 7.05761 12.3825 6.73482C12.4241 6.714 13.3196 6.06842 13.0593 6.33915C12.1638 7.10967 11.2996 7.98432 10.5603 8.90062Z" fill="white"/>
<path opacity="0.9524" d="M10.4874 8.95197C7.67604 12.159 6.25994 16.9904 5.99963 20.7181C5.92674 15.9387 7.87387 11.1698 11.2579 7.78577C11.6015 7.44216 11.9556 7.11937 12.32 6.807C12.3408 6.79658 13.2571 6.11977 12.9552 6.42173C12.0701 7.17143 11.2163 8.04608 10.4874 8.95197Z" fill="white"/>
<path d="M5.98918 20.5523C6.01001 15.3772 8.36323 10.2855 12.2471 6.88067C13.0801 6.26633 13.0905 6.30798 12.32 6.96397C8.23828 10.6604 6.39527 15.648 5.98918 20.5523Z" fill="white"/>
</g>
<path d="M28.4594 18.8758L15.423 22.364L17.2035 26.8101C17.4743 27.4869 18.2135 27.8618 18.9216 27.6639L28.0846 25.2066C28.7926 25.0192 29.2404 24.332 29.1467 23.6031L28.4594 18.8758Z" fill="#003383"/>
<path d="M24.9713 14.169C25.0858 14.1378 25.2212 14.1482 25.3357 14.2211C25.5648 14.3564 25.6481 14.648 25.5127 14.8771L22.9721 19.2711C22.8367 19.5002 22.5452 19.5835 22.3161 19.4481C22.087 19.3128 22.0037 19.0212 22.1391 18.7921L24.6797 14.3981C24.7422 14.2835 24.8567 14.2002 24.9713 14.169Z" fill="#2C3E50"/>
<path d="M15.7458 17.1474C15.7146 17.0329 15.725 16.8975 15.7979 16.783C15.9332 16.5539 16.2248 16.4706 16.4539 16.606L20.8479 19.1466C21.077 19.282 21.1603 19.5735 21.0249 19.8026C20.8896 20.0317 20.598 20.115 20.369 19.9796L15.9749 17.439C15.8604 17.3661 15.7875 17.262 15.7458 17.1474Z" fill="#2C3E50"/>
<path d="M22.2328 21.718C22.0349 21.7701 21.9204 21.9783 21.9725 22.1762L22.743 25.0604C22.795 25.2583 23.0033 25.3728 23.2011 25.3207C23.399 25.2687 23.5135 25.0604 23.4614 24.8626L22.6909 21.9783C22.6389 21.7909 22.4306 21.666 22.2328 21.718ZM19.3277 22.499C19.1298 22.551 19.0153 22.7593 19.0674 22.9571L19.8379 25.8414C19.89 26.0392 20.0982 26.1537 20.296 26.1017C20.4939 26.0496 20.6084 25.8414 20.5564 25.6435L19.7858 22.7593C19.7338 22.5718 19.5255 22.4469 19.3277 22.499ZM25.1483 20.9475C24.9504 20.9996 24.8359 21.2078 24.8879 21.4056L25.6585 24.2899C25.7105 24.4877 25.9188 24.6023 26.1166 24.5502C26.3145 24.4981 26.429 24.2899 26.3769 24.0921L25.6064 21.2078C25.5439 21.01 25.3461 20.885 25.1483 20.9475Z" fill="white"/>
<path d="M28.928 18.7508L14.9544 22.4888C14.8295 22.5201 14.6941 22.4472 14.6629 22.3222L14.3922 21.333C14.3609 21.2081 14.4338 21.0727 14.5588 21.0415L28.5323 17.3034C28.6573 17.2722 28.7926 17.3451 28.8239 17.47L29.0946 18.4592C29.1258 18.5842 29.0529 18.7091 28.928 18.7508Z" fill="#529BDD"/>
<path d="M15.7041 23.072L28.5636 19.6255L28.4594 18.8758L15.423 22.364L15.7041 23.072Z" fill="#002863"/>
<path d="M18.5571 12.9404C19.1506 12.7842 19.6088 13.1278 19.7754 13.7317C19.9732 14.4606 19.6088 14.9708 19.109 15.1062C18.5779 15.2519 18.0469 14.9604 17.8803 14.3044C17.7033 13.6692 17.9636 13.0966 18.5571 12.9404ZM18.6508 13.3881C18.4113 13.4506 18.3801 13.763 18.4738 14.117C18.5675 14.4814 18.7654 14.7105 19.0048 14.648C19.2339 14.5855 19.286 14.3148 19.1819 13.9191C19.0777 13.5651 18.9111 13.3256 18.6508 13.3881ZM19.5359 16.5431L20.5771 12.3989L21.0145 12.2844L19.9732 16.4181L19.5359 16.5431ZM21.4622 13.7109C22.0557 13.5547 22.5139 13.8983 22.67 14.4918C22.8679 15.2207 22.5034 15.7309 22.0036 15.8663C21.4726 16.012 20.952 15.7205 20.775 15.0645C20.6084 14.4502 20.8687 13.8775 21.4622 13.7109ZM21.5559 14.169C21.3164 14.2315 21.2852 14.5439 21.3789 14.8875C21.4726 15.2519 21.6704 15.481 21.8995 15.4185C22.1286 15.3561 22.1807 15.0853 22.0765 14.7001C21.9828 14.346 21.8162 14.0961 21.5559 14.169Z" fill="#003383"/>
<path d="M98.5457 20.042C98.1605 42.3768 64.9343 42.3768 64.5594 20.042C64.9343 -2.3032 98.1605 -2.3032 98.5457 20.042Z" fill="url(#paint2_linear_1_932)"/>
<mask id="mask1_1_932" style="mask-type:alpha" maskUnits="userSpaceOnUse" x="87" y="3" width="14" height="28">
<path d="M87.092 6.48497C87.2586 6.59951 93.4644 3.71526 93.4644 3.71526L100.982 16.6059L96.5882 30.6315L92.0692 29.6736L94.4745 17.9179L87.092 6.48497Z" fill="url(#paint3_linear_1_932)"/>
</mask>
<g mask="url(#mask1_1_932)">
<path opacity="0.0476" d="M90.3928 6.58937C95.9426 9.17167 99.0664 15.7732 98.2334 21.7604C98.0043 24.1865 96.8381 27.7788 94.7764 29.2157C96.1717 26.1961 96.9006 22.0936 96.5778 18.7824C96.1196 14.128 93.7768 9.786 90.3928 6.58937Z" fill="white"/>
<path opacity="0.0952" d="M90.5177 6.68274C95.9114 9.19215 99.0143 15.8249 98.2125 21.6767C98.0147 24.0195 96.8381 27.7159 94.8493 29.0904C96.2342 26.05 96.9422 22.0932 96.6298 18.7612C96.1717 14.1589 93.8601 9.85855 90.5177 6.68274Z" fill="white"/>
<path opacity="0.1429" d="M90.6323 6.77611C95.8906 9.23345 98.9414 15.8454 98.1813 21.6035C98.0147 23.8317 96.8173 27.6948 94.9118 28.9755C96.2967 25.9038 96.9735 22.1033 96.6715 18.7505C96.2238 14.1898 93.9434 9.92068 90.6323 6.77611Z" fill="white"/>
<path opacity="0.1905" d="M90.7468 6.88031C95.9114 9.35848 98.8581 15.8142 98.1501 21.5307C98.0147 23.2383 97.5565 24.9043 96.7964 26.4349C96.3279 27.2471 95.8489 28.4237 94.9847 28.8611C96.3695 25.7685 97.0255 22.1034 96.7131 18.7401C96.2654 14.2211 94.0267 9.99364 90.7468 6.88031Z" fill="white"/>
<path opacity="0.2381" d="M90.8717 6.97458C93.1 7.84923 95.8489 11.0354 96.9005 13.524C98.0251 15.9918 98.3791 18.7615 98.1292 21.4375C98.0043 23.1347 97.5565 24.8007 96.8068 26.3314C96.3591 27.1123 95.8905 28.3202 95.0575 28.7158C96.432 25.5921 97.0671 22.0935 96.7652 18.699C96.3174 14.2529 94.11 10.0671 90.8717 6.97458Z" fill="white"/>
<path opacity="0.2857" d="M90.9863 7.07832C93.048 7.83843 95.8593 11.1288 96.8485 13.5028C97.9627 15.9498 98.3271 18.6986 98.098 21.3747C97.9731 23.0719 97.5462 24.7379 96.8069 26.2685C96.3904 26.9766 95.8802 28.299 95.1096 28.6113C96.4737 25.5084 97.088 22.0723 96.7965 18.6986C96.3695 14.2733 94.1933 10.1292 90.9863 7.07832Z" fill="white"/>
<path opacity="0.3333" d="M91.1112 7.17215C92.9959 7.81772 95.8802 11.2122 96.8069 13.4717C97.7127 15.4605 98.1397 17.6575 98.1397 19.8233C98.1501 21.9995 97.7648 24.1966 96.8277 26.1749C96.4841 26.7684 95.8385 28.3303 95.1929 28.4865C96.5465 25.4148 97.1505 22.0203 96.8589 18.6779C96.4216 14.3047 94.2766 10.2022 91.1112 7.17215Z" fill="white"/>
<path opacity="0.381" d="M91.2257 7.26596C92.9438 7.78658 95.8905 11.2956 96.7652 13.4406C97.6607 15.4085 98.1084 17.5951 98.1084 19.7505C98.1292 21.9267 97.7544 24.1134 96.8381 26.0917C96.5569 26.5915 95.7968 28.3408 95.2658 28.3616C98.5249 20.9688 97.088 12.8991 91.2257 7.26596Z" fill="white"/>
<path opacity="0.4286" d="M91.3507 7.37016C92.267 7.46388 94.9535 10.2648 95.8073 11.7434C96.9631 13.5448 97.6711 15.6585 97.9523 17.7722C98.2855 20.5524 98.0147 23.447 96.8485 26.0085C96.6299 26.4146 95.7552 28.3617 95.3387 28.2368C98.5562 20.9689 97.1193 12.8992 91.3507 7.37016Z" fill="white"/>
<path opacity="0.4762" d="M91.4653 7.46364C92.2358 7.44282 95.0159 10.3687 95.8073 11.7952C96.9422 13.5654 97.6294 15.6374 97.9106 17.6991C98.2646 20.4688 97.9939 23.3531 96.8589 25.925C96.6819 26.2686 95.7344 28.3511 95.4116 28.122C98.5874 20.9686 97.1505 12.9094 91.4653 7.46364Z" fill="white"/>
<path opacity="0.5238" d="M91.5902 7.56779C92.0171 7.38036 94.6723 10.0043 95.4428 11.3059C96.0468 12.1493 96.609 13.2218 96.9839 14.1901C98.3896 17.897 98.4208 22.1869 96.8693 25.8521C96.7236 26.1437 95.7031 28.3511 95.4845 28.0075C98.6186 20.9686 97.1817 12.9094 91.5902 7.56779Z" fill="white"/>
<path opacity="0.5714" d="M91.7047 7.66156C92.0171 7.39083 94.7243 10.0877 95.4532 11.3684C96.0363 12.1806 96.5674 13.2218 96.9318 14.1485C98.3375 17.845 98.3895 22.1037 96.8693 25.7584C96.7548 26.0188 95.6719 28.3199 95.5469 27.8722C98.6498 20.9375 97.2129 12.9303 91.7047 7.66156Z" fill="white"/>
<path opacity="0.619" d="M91.8297 7.76589C92.0379 7.42228 94.766 10.1712 95.474 11.4415C98.2438 15.544 98.7123 21.1043 96.8797 25.6754C96.786 25.9148 95.6615 28.2889 95.6198 27.7578C95.8801 27.1643 96.2133 26.3001 96.3695 25.7795C98.3999 19.3862 96.6819 12.4099 91.8297 7.76589Z" fill="white"/>
<path opacity="0.6667" d="M91.9442 7.85944C92.0484 7.44294 94.7868 10.2439 95.4845 11.5142C98.1917 15.5959 98.6603 21.0625 96.8797 25.6023C95.8593 27.8722 95.0367 28.9447 96.4216 25.6856C98.4416 19.3965 96.7236 12.4201 91.9442 7.85944Z" fill="white"/>
<path opacity="0.7143" d="M92.0588 7.9533C92.0484 7.46391 94.8181 10.3169 95.4949 11.5768C98.1397 15.6273 98.6082 21.0106 96.8798 25.5087C95.8281 27.8411 95.1513 28.7678 96.4737 25.5712C98.4729 19.4174 96.7652 12.4411 92.0588 7.9533Z" fill="white"/>
<path opacity="0.7619" d="M92.1837 8.057C91.9547 7.6405 93.579 8.93165 94.7764 10.5872C94.8077 10.6185 95.0159 10.8996 95.0368 10.9308C95.1721 11.1287 95.3908 11.4515 95.5157 11.6493C98.098 15.6685 98.5666 20.9685 96.9006 25.425C95.8281 27.8303 95.2762 28.6008 96.5466 25.4771C98.5145 19.4274 96.7965 12.4511 92.1837 8.057Z" fill="white"/>
<path opacity="0.8095" d="M92.2982 8.15081C91.965 7.66142 93.5998 8.9734 94.7972 10.6602C94.8181 10.681 95.0263 10.983 95.0575 11.0038C95.1929 11.1913 95.4012 11.5245 95.5261 11.7223C98.0459 15.7207 98.5249 20.9269 96.9005 25.3418C95.8072 27.82 95.3803 28.4239 96.5986 25.3731C98.5457 19.3963 96.8485 12.5032 92.2982 8.15081Z" fill="white"/>
<path opacity="0.8571" d="M92.4232 8.25521C91.8922 7.53675 94.1933 9.65048 95.0888 11.0874C95.2137 11.2748 95.422 11.608 95.5469 11.7955C98.0043 15.7626 98.4833 20.8855 96.911 25.2692C95.7968 27.8203 95.4949 28.2472 96.6507 25.29C98.577 19.3757 96.911 12.5556 92.4232 8.25521Z" fill="white"/>
<path opacity="0.9048" d="M92.5377 8.34902C91.8609 7.52644 94.2349 9.72347 95.12 11.15C95.2345 11.3374 95.4532 11.6706 95.5677 11.858C97.9626 15.7939 98.4416 20.8336 96.9213 25.1756C95.7864 27.8099 95.6094 28.0598 96.7131 25.1756C98.6082 19.3446 96.963 12.6077 92.5377 8.34902Z" fill="white"/>
<path opacity="0.9524" d="M92.6627 8.44229C91.8922 7.56765 94.2558 9.75427 95.1513 11.2224C95.2658 11.3994 95.4741 11.743 95.5886 11.9201C97.9106 15.8352 98.4104 20.7811 96.9318 25.0814C96.7444 25.6125 96.2342 26.7162 95.9843 27.216C96.1613 26.6641 96.6403 25.5188 96.7756 25.071C98.6395 19.3233 97.0151 12.6593 92.6627 8.44229Z" fill="white"/>
<path d="M94.9431 10.9726C98.2022 15.6374 98.6603 22.0827 96.026 27.1431C97.869 23.1968 98.1501 17.9906 96.3592 13.8985C95.5366 11.9097 94.3079 10.0667 92.7773 8.55687C92.0172 7.78634 93.7248 9.16079 94.9431 10.9726Z" fill="white"/>
</g>
<path d="M81.4934 12.0712L77.0682 13.2569L77.4643 14.7353L81.8896 13.5496L81.4934 12.0712Z" fill="#2C3E50"/>
<path d="M80.2151 13.2021L78.7366 13.5982L79.2298 15.4387L80.7082 15.0426L80.2151 13.2021Z" fill="#2C3E50"/>
<path d="M84.6693 14.2173L84.0341 15.3174L85.3597 16.0827L85.9948 14.9826L84.6693 14.2173Z" fill="#2C3E50"/>
<path d="M83.3226 27.7676C79.6678 28.7464 75.8881 26.5702 74.9093 22.9154C73.9306 19.2606 76.1068 15.4809 79.7615 14.5021C83.4163 13.5234 87.1961 15.6996 88.1748 19.3543C89.164 23.0195 86.9774 26.7889 83.3226 27.7676ZM80.1676 15.9807C77.325 16.7408 75.6278 19.6771 76.3879 22.5197C77.148 25.3623 80.0843 27.0596 82.9269 26.2995C85.7695 25.5394 87.4668 22.603 86.7067 19.7604C85.9466 16.9074 83.0102 15.2206 80.1676 15.9807Z" fill="#003383"/>
<path d="M82.7292 25.5607C80.2926 26.2167 77.7728 24.759 77.1272 22.3225C76.4713 19.8859 77.929 17.3661 80.3655 16.7205C80.7716 16.6164 81.1881 16.8559 81.3026 17.262C81.4068 17.6681 81.1673 18.0846 80.7612 18.1991C79.1368 18.6364 78.1685 20.3129 78.6058 21.9372C79.0431 23.5615 80.7195 24.5299 82.3439 24.0926C82.75 23.9885 83.1665 24.2279 83.281 24.634C83.3851 25.0297 83.1352 25.4462 82.7292 25.5607Z" fill="#529BDD"/>
<path d="M84.4367 23.7491C84.0723 23.5408 83.9578 23.0618 84.1764 22.7078C84.3847 22.3434 84.8636 22.2288 85.2177 22.4475C85.5821 22.6557 85.6966 23.1347 85.478 23.4887C85.3738 23.6658 85.2072 23.7907 85.0198 23.8428C84.822 23.8844 84.6137 23.8532 84.4367 23.7491ZM84.4992 20.3442C84.3951 19.9381 84.6346 19.5216 85.0406 19.4071C85.4467 19.3029 85.8632 19.5424 85.9778 19.9485C86.0819 20.3546 85.8424 20.7711 85.4363 20.8856C85.0198 21.0002 84.6033 20.7503 84.4992 20.3442Z" fill="#529BDD"/>
<path d="M81.7503 21.8744C81.3442 21.9785 80.9277 21.739 80.8132 21.3329C80.7091 20.9268 80.9486 20.5103 81.3546 20.3958C81.7607 20.2917 82.1772 20.5311 82.2918 20.9372C82.3959 21.3433 82.1564 21.7702 81.7503 21.8744ZM81.5525 21.1351L81.188 21.2288L81.5525 21.1351Z" fill="#2C3E50"/>
<path d="M81.5525 21.1354C81.3442 21.1874 81.136 21.0729 81.0839 20.8646L80.0947 17.1786C80.0427 16.9704 80.1572 16.7621 80.3655 16.7101C80.5737 16.658 80.7819 16.7725 80.834 16.9808L81.8232 20.6668C81.8753 20.8751 81.7503 21.0833 81.5525 21.1354Z" fill="#2C3E50"/>
<path d="M71.9523 19.9997C71.4941 46.6661 31.8226 46.6661 31.3748 19.9997C31.8226 -6.66665 71.4941 -6.66665 71.9523 19.9997Z" fill="url(#paint4_linear_1_932)"/>
<mask id="mask2_1_932" style="mask-type:alpha" maskUnits="userSpaceOnUse" x="29" y="0" width="16" height="26">
<path d="M41.6103 15.1894C38.018 21.8951 33.0304 26.2267 30.4794 24.8626C27.9283 23.4986 28.7717 16.9491 32.3744 10.2435C35.9772 3.53787 40.9543 -0.793718 43.5054 0.570317C46.0564 1.93435 45.2026 8.4838 41.6103 15.1894Z" fill="url(#paint5_linear_1_932)"/>
</mask>
<g mask="url(#mask2_1_932)">
<path opacity="0.0476" d="M39.6527 5.64113C35.1546 10.8161 32.9888 17.7196 32.895 24.4981C29.8858 15.8245 34.7693 5.19339 43.3075 1.84058C42.0164 3.0276 40.7773 4.28751 39.6527 5.64113Z" fill="white"/>
<path opacity="0.0952" d="M39.559 5.69329C35.1337 10.7746 32.9679 17.6676 32.8742 24.29C30.0316 15.7309 34.7901 5.28721 43.1722 1.93439C41.9018 3.111 40.6732 4.36049 39.559 5.69329Z" fill="white"/>
<path opacity="0.1429" d="M39.4757 5.74547C35.1233 10.7226 32.9679 17.6053 32.8638 24.0923C30.1982 15.6477 34.8317 5.39144 43.0472 2.02821C41.7873 3.19441 40.569 4.4335 39.4757 5.74547Z" fill="white"/>
<path opacity="0.1905" d="M39.382 5.80801C35.1025 10.6915 32.9471 17.5533 32.8429 23.9049C30.3544 15.5853 34.863 5.50604 42.9222 2.1324C41.6727 3.27777 40.4649 4.49603 39.382 5.80801Z" fill="white"/>
<path opacity="0.2381" d="M39.2883 5.85972C35.0816 10.6495 32.9367 17.4905 32.8221 23.7067C30.5001 15.5017 34.8838 5.60982 42.7869 2.22577C41.5478 3.35032 40.3608 4.56858 39.2883 5.85972Z" fill="white"/>
<path opacity="0.2857" d="M39.205 5.91194C35.0713 10.608 32.9263 17.4281 32.8118 23.4986C30.6564 15.4081 34.9255 5.7141 42.662 2.30922C41.4333 3.43377 40.2567 4.6312 39.205 5.91194Z" fill="white"/>
<path opacity="0.3333" d="M39.1113 5.96408C35.0504 10.5664 32.9159 17.3657 32.7909 23.3009C30.8022 15.3249 34.9671 5.8183 42.537 2.41342C41.3188 3.51714 40.1526 4.70417 39.1113 5.96408Z" fill="white"/>
<path opacity="0.381" d="M39.0176 6.01624C35.0296 10.5248 32.8951 17.3034 32.7701 23.1031C30.9479 15.2521 34.9984 5.92253 42.4121 2.50723C41.2042 3.59013 40.0484 4.76674 39.0176 6.01624Z" fill="white"/>
<path opacity="0.4286" d="M38.9343 6.07837C35.0088 10.5141 32.895 17.2301 32.7597 22.9049C31.0937 15.1685 35.04 6.02631 42.2871 2.6006C41.0897 3.67309 39.9443 4.83928 38.9343 6.07837Z" fill="white"/>
<path opacity="0.4762" d="M38.8406 6.13055C34.9775 10.5038 32.895 17.1261 32.7388 22.7072C31.229 15.0853 35.0816 6.14096 42.1517 2.69443C40.9751 3.7565 39.8402 4.91229 38.8406 6.13055Z" fill="white"/>
<path opacity="0.5238" d="M38.7468 6.18223C34.9359 10.5034 32.8846 17.032 32.718 22.509C31.3644 15.012 35.1233 6.2447 42.0164 2.79817C40.8606 3.82901 39.736 4.97438 38.7468 6.18223Z" fill="white"/>
<path opacity="0.5714" d="M38.6635 6.23444C34.9151 10.4723 32.8846 16.9489 32.718 22.3009C31.5206 14.9184 35.1858 6.32815 41.9122 2.88162C40.746 3.91246 39.6319 5.04742 38.6635 6.23444Z" fill="white"/>
<path opacity="0.619" d="M38.5699 6.29698C34.8734 10.4828 32.8847 16.8552 32.6972 22.1135C31.6456 14.856 35.2483 6.43234 41.7769 2.98581C40.6315 3.99582 39.5278 5.10996 38.5699 6.29698Z" fill="white"/>
<path opacity="0.6667" d="M38.4761 6.34927C34.8317 10.483 32.8846 16.7513 32.6763 21.9159C31.8017 15.0125 34.9359 7.67165 40.6211 3.6212C40.7981 3.52749 41.7352 2.89233 41.6415 3.07975C40.5169 4.06894 39.4236 5.18307 38.4761 6.34927Z" fill="white"/>
<path opacity="0.7143" d="M38.3928 6.40135C34.8005 10.483 32.895 16.6472 32.666 21.7181C31.9267 14.9188 34.9984 7.75497 40.5378 3.70452C40.694 3.62122 41.6519 2.96523 41.5166 3.17348C40.4024 4.15226 39.3195 5.24557 38.3928 6.40135Z" fill="white"/>
<path opacity="0.7619" d="M38.2991 6.45377C34.7589 10.4834 32.8951 16.5435 32.6452 21.5102C32.0412 14.815 35.0609 7.82822 40.4545 3.77776C40.5795 3.71529 41.5687 3.01765 41.3916 3.25714C40.2879 4.23591 39.2154 5.31881 38.2991 6.45377Z" fill="white"/>
<path opacity="0.8095" d="M38.2054 6.50554C34.7172 10.4831 32.895 16.439 32.6243 21.3121C32.1453 14.721 35.1233 7.91123 40.3712 3.86077C40.4753 3.80871 41.4853 3.09025 41.2667 3.36097C40.1733 4.30851 39.1113 5.38099 38.2054 6.50554Z" fill="white"/>
<path opacity="0.8571" d="M38.1221 6.56771C34.686 10.4932 32.9054 16.3554 32.6139 21.1244C32.2911 14.9393 34.915 8.61897 39.6006 4.54769C39.736 4.37067 41.3291 3.16283 41.1417 3.46479C40.0588 4.3915 39.0071 5.45357 38.1221 6.56771Z" fill="white"/>
<path opacity="0.9048" d="M38.0284 6.61988C34.6235 10.5246 32.9054 16.2827 32.5931 20.9162C32.3952 15.1269 34.7484 9.27506 38.8822 5.21419C39.2987 4.79769 39.7569 4.41243 40.1942 4.02717C40.2462 3.99593 41.3187 3.22541 40.9959 3.5482C39.9443 4.47491 38.9134 5.52657 38.0284 6.61988Z" fill="white"/>
<path opacity="0.9524" d="M37.9347 6.67162C35.2379 9.94114 33.499 13.9812 32.9055 18.1774C32.5202 20.968 32.5723 21.4261 32.5723 19.8746C32.7284 13.8771 35.5294 7.994 40.1109 4.11015C40.1421 4.09974 41.2459 3.29798 40.8814 3.652C39.8298 4.54747 38.8093 5.58872 37.9347 6.67162Z" fill="white"/>
<path d="M32.5619 20.5203C32.5827 14.3353 35.3941 8.26486 40.038 4.19358C41.0376 3.46471 41.0481 3.51677 40.1213 4.28729C35.2275 8.74383 33.0617 14.6373 32.5619 20.5203Z" fill="white"/>
</g>
<mask id="mask3_1_932" style="mask-type:alpha" maskUnits="userSpaceOnUse" x="58" y="0" width="17" height="33">
<path d="M58.0204 3.68368C58.2183 3.81904 65.6319 0.372513 65.6319 0.372513L74.6075 15.7622L69.3596 32.5158L63.9659 31.3705L66.8398 17.3344L58.0204 3.68368Z" fill="url(#paint6_linear_1_932)"/>
</mask>
<g mask="url(#mask3_1_932)">
<path opacity="0.0476" d="M61.9668 3.80888C68.5891 6.89098 72.3168 14.7732 71.3276 21.9266C71.0777 24.7692 69.6199 29.1737 67.2042 30.8293C68.8494 27.289 69.7553 22.2702 69.3596 18.3759C68.7973 12.8157 66.0068 7.63026 61.9668 3.80888Z" fill="white"/>
<path opacity="0.0952" d="M62.1021 3.92345C68.537 6.92224 72.2542 14.8357 71.2859 21.8329C71.0776 24.5506 69.5991 29.1321 67.2771 30.6835C68.9222 27.1016 69.7865 22.2806 69.4012 18.3551C68.8598 12.8469 66.1005 7.71359 62.1021 3.92345Z" fill="white"/>
<path opacity="0.1429" d="M62.2478 4.03757C68.5682 7.02595 72.1501 14.8041 71.265 21.7388C71.0984 23.7796 70.5362 25.7788 69.6094 27.601C69.0368 28.611 68.4328 29.9855 67.3708 30.5373C69.0159 26.9346 69.8489 22.2698 69.4637 18.3339C68.9222 12.8882 66.2046 7.79647 62.2478 4.03757Z" fill="white"/>
<path opacity="0.1905" d="M62.3936 4.15259C65.2675 5.33961 68.4537 9.0048 69.7865 12.1285C71.1297 15.0961 71.5358 18.4177 71.2338 21.6456C71.0776 23.676 70.5258 25.6752 69.6095 27.4974C69.0576 28.4657 68.4745 29.8714 67.4437 30.392C69.0784 26.7581 69.8802 22.2703 69.5158 18.3136C68.9743 12.9199 66.2983 7.86984 62.3936 4.15259Z" fill="white"/>
<path opacity="0.2381" d="M62.529 4.27708C65.1946 5.31833 68.4641 9.11889 69.724 12.0969C71.0672 15.0436 71.4837 18.3443 71.1922 21.5514C71.036 23.5818 70.505 25.5706 69.6095 27.4032C69.068 28.3299 68.5162 29.7772 67.5166 30.2458C69.1513 26.5806 69.9219 22.2698 69.5574 18.2923C69.0368 12.9507 66.4024 7.95269 62.529 4.27708Z" fill="white"/>
<path opacity="0.2857" d="M62.6748 4.39211C65.1321 5.29799 68.4849 9.2235 69.6719 12.0661C71.0047 14.992 71.4421 18.2719 71.1713 21.4582C71.0256 23.4782 70.5049 25.467 69.6303 27.2996C69.1409 28.1326 68.5161 29.7361 67.6103 30.1005C69.2346 26.4041 69.9843 22.2807 69.6199 18.2615C69.0992 12.9928 66.4961 8.03647 62.6748 4.39211Z" fill="white"/>
<path opacity="0.3333" d="M62.8206 4.50667C65.0801 5.27719 68.5162 9.32765 69.6303 12.0245C70.7132 14.3985 71.2234 17.0121 71.2234 19.6152C71.2338 22.2183 70.7861 24.8422 69.6511 27.1955C69.2555 27.8931 68.4537 29.7778 67.704 29.9548C69.3179 26.2792 70.0468 22.2287 69.6824 18.2407C69.1618 13.0241 66.6003 8.1198 62.8206 4.50667Z" fill="white"/>
<path opacity="0.381" d="M62.9559 4.62079C65.0072 5.24554 68.5266 9.43135 69.5679 11.9928C70.6403 14.346 71.161 16.9492 71.1714 19.521C71.1922 22.1138 70.7549 24.7273 69.6512 27.0909C69.3284 27.674 68.4017 29.7878 67.7769 29.7982C69.37 26.1538 70.0885 22.1658 69.7345 18.2091C69.2242 13.0653 66.694 8.20268 62.9559 4.62079Z" fill="white"/>
<path opacity="0.4286" d="M63.1017 4.73535C64.195 4.83948 67.4124 8.19229 68.4225 9.96242C69.8073 12.1074 70.6507 14.6376 70.9735 17.1574C71.3796 20.4686 71.0464 23.936 69.6511 26.9972C69.3908 27.4762 68.3392 29.8086 67.8498 29.6628C71.7128 20.9163 70.0052 11.3993 63.1017 4.73535Z" fill="white"/>
<path opacity="0.4762" d="M63.2474 4.86038C64.1637 4.83956 67.4853 8.32774 68.4224 10.0354C69.7761 12.1387 70.5986 14.6169 70.9318 17.0846C71.3483 20.3854 71.0256 23.8423 69.6719 26.9036C69.4637 27.2993 68.3079 29.8191 67.9435 29.5171C71.744 20.9164 70.0468 11.3994 63.2474 4.86038Z" fill="white"/>
<path opacity="0.5238" d="M63.3828 4.97508C64.1429 4.82931 67.527 8.45285 68.4224 10.0876C69.7344 12.1597 70.5362 14.5858 70.8798 17.0015C71.3171 20.2918 71.0047 23.7384 69.6824 26.7996C69.5158 27.1432 68.2767 29.7984 68.0268 29.3715C71.7857 20.9166 70.078 11.41 63.3828 4.97508Z" fill="white"/>
<path opacity="0.5714" d="M63.5286 5.08918C63.9139 4.78722 67.1105 7.97344 68.006 9.51448C68.6932 10.4828 69.3388 11.7219 69.7657 12.8361C71.4421 17.2405 71.5046 22.3322 69.6928 26.7055C69.5574 27.0074 68.2455 29.7772 68.1101 29.2357C71.8169 20.9161 70.1197 11.42 63.5286 5.08918Z" fill="white"/>
<path opacity="0.619" d="M63.6744 5.20428C63.966 4.82943 67.1522 8.0573 68.0268 9.59835C71.3276 14.5026 71.9003 21.1354 69.7032 26.6019C69.5991 26.8727 68.2351 29.7361 68.1934 29.0801C68.5058 28.3616 68.9015 27.3412 69.0889 26.7165C71.515 19.0425 69.495 10.8062 63.6744 5.20428Z" fill="white"/>
<path opacity="0.6667" d="M63.8097 5.32927C63.9555 4.85029 67.1937 8.17188 68.0371 9.6921C71.265 14.5651 71.8273 21.0938 69.7031 26.5083C68.4849 29.2259 67.4957 30.5066 69.1513 26.6124C71.567 19.0529 69.5365 10.8271 63.8097 5.32927Z" fill="white"/>
<path opacity="0.7143" d="M63.9555 5.44325C63.9763 4.88097 67.225 8.23379 68.058 9.76443C71.213 14.5958 71.7752 21.0203 69.7136 26.3932C68.4641 29.1837 67.6415 30.2978 69.2242 26.4765C71.6087 19.0628 69.5886 10.8473 63.9555 5.44325Z" fill="white"/>
<path opacity="0.7619" d="M64.1013 5.55834C63.8305 5.05854 65.7568 6.59959 67.1938 8.57796C67.225 8.6092 67.4749 8.95281 67.5061 8.99446C67.6727 9.23395 67.9226 9.61921 68.0788 9.8587C71.1609 14.6588 71.7232 20.9792 69.724 26.3104C68.4433 29.1843 67.7769 30.111 69.2971 26.3729C71.6503 19.0737 69.6303 10.8687 64.1013 5.55834Z" fill="white"/>
<path opacity="0.8095" d="M64.2367 5.6726C63.841 5.08951 65.7881 6.65138 67.225 8.66099C67.2563 8.69222 67.5062 9.04625 67.527 9.06707C67.6832 9.29615 67.9331 9.69182 68.0893 9.9209C71.0985 14.6898 71.6608 20.9061 69.724 26.1852C68.4121 29.1527 67.9019 29.8712 69.3596 26.2268C71.692 19.0839 69.6824 10.8893 64.2367 5.6726Z" fill="white"/>
<path opacity="0.8571" d="M64.3824 5.79749C63.7473 4.93325 66.4961 7.47389 67.5686 9.17113C67.7144 9.4002 67.9747 9.79588 68.1205 10.025C71.0464 14.7626 71.6191 20.8748 69.7448 26.1018C68.412 29.1527 68.0476 29.6733 69.4429 26.1226C71.7336 19.0734 69.7344 10.9308 64.3824 5.79749Z" fill="white"/>
<path opacity="0.9048" d="M64.5282 5.91217C63.716 4.92299 66.5586 7.54693 67.6103 9.26499C67.756 9.48365 68.0059 9.88974 68.1413 10.1084C70.9943 14.8148 71.5774 20.8228 69.7552 26.0083C68.4016 29.1632 68.1829 29.4548 69.5157 26.0083C71.7648 19.0423 69.7969 10.9935 64.5282 5.91217Z" fill="white"/>
<path opacity="0.9524" d="M64.674 6.02634C63.7473 4.97468 66.5795 7.58822 67.6416 9.34792C67.7769 9.56659 68.0268 9.97267 68.1622 10.1913C70.9423 14.8665 71.5254 20.7704 69.7761 25.9038C69.547 26.5389 68.9431 27.8509 68.6411 28.4548C68.8494 27.7988 69.4221 26.4244 69.5887 25.8934C71.8065 19.0107 69.8698 11.0556 64.674 6.02634Z" fill="white"/>
<path d="M67.3917 9.0357C71.2859 14.6064 71.8378 22.3012 68.6828 28.3404C70.8798 23.634 71.2235 17.4177 69.0889 12.5239C68.0997 10.1498 66.642 7.9528 64.8094 6.14103C63.8931 5.23514 65.9339 6.88031 67.3917 9.0357Z" fill="white"/>
</g>
<path d="M51.6583 27.9133C56.0288 27.9133 59.5718 24.3703 59.5718 19.9998C59.5718 15.6293 56.0288 12.0863 51.6583 12.0863C47.2878 12.0863 43.7449 15.6293 43.7449 19.9998C43.7449 24.3703 47.2878 27.9133 51.6583 27.9133Z" fill="#2C3E50"/>
<path d="M58.163 13.708L42.8758 17.804L45.1501 26.2924L60.4374 22.1964L58.163 13.708Z" fill="white"/>
<path d="M58.0308 17.0325C57.6976 16.3244 57.885 15.5227 58.4161 15.0125C58.6868 14.7626 58.718 14.3461 58.5618 14.0129L57.7601 12.3052C57.5518 11.8679 57.0312 11.6701 56.5939 11.8783L42.2559 18.5631C41.8186 18.7714 41.6207 19.292 41.829 19.7293L42.6307 21.437C42.7869 21.7702 43.1305 21.9992 43.4846 21.9576C44.2134 21.8743 44.9527 22.2596 45.2755 22.9572C45.6087 23.6652 45.4213 24.467 44.8902 24.9772C44.6195 25.2271 44.5883 25.6436 44.7445 25.9768L45.5462 27.6845C45.7545 28.1218 46.2751 28.3196 46.7124 28.1114L61.0504 21.4266C61.4877 21.2183 61.6856 20.6977 61.4773 20.2604L60.6756 18.5527C60.5194 18.2195 60.1758 17.9904 59.8217 18.0321C59.0929 18.1154 58.364 17.7301 58.0308 17.0325Z" fill="#529BDD"/>
<path d="M58.4473 18.1775C58.2494 17.4278 58.5618 16.6573 59.1761 16.2512C59.4781 16.0533 59.5926 15.6472 59.4989 15.2932L59.0095 13.471C58.8846 13.0025 58.4056 12.7213 57.9371 12.8463L42.6515 16.9384C42.183 17.0633 41.9018 17.5423 42.0268 18.0109L42.5162 19.8331C42.6099 20.1871 42.9014 20.4786 43.2659 20.4995C44.0052 20.5411 44.6611 21.0513 44.859 21.801C45.0568 22.5507 44.7444 23.3212 44.1301 23.7273C43.8281 23.9252 43.7136 24.3313 43.8073 24.6853L44.2967 26.5075C44.4217 26.976 44.9006 27.2572 45.3692 27.1322L60.6547 23.0401C61.1233 22.9152 61.4044 22.4362 61.2795 21.9676L60.7901 20.1454C60.6964 19.7914 60.4048 19.4999 60.0404 19.479C59.3115 19.4374 58.6555 18.9272 58.4473 18.1775Z" fill="#003383"/>
<path d="M49.3363 17.8858C50.1798 17.6567 50.8253 18.1565 51.0544 18.9999C51.3251 20.0203 50.8253 20.7388 50.1069 20.9366C49.3572 21.1345 48.6179 20.7284 48.368 19.8017C48.1285 18.927 48.4929 18.1148 49.3363 17.8858ZM49.4717 18.5313C49.1281 18.6251 49.0864 19.0624 49.2218 19.5622C49.3572 20.0828 49.6383 20.4056 49.9715 20.3119C50.2943 20.2286 50.3672 19.8433 50.2214 19.2914C50.0756 18.7812 49.8361 18.4272 49.4717 18.5313ZM50.7108 22.9879L52.179 17.1361L52.7933 16.9695L51.3251 22.8109L50.7108 22.9879ZM53.4389 18.9895C54.2823 18.7604 54.9278 19.2602 55.1465 20.1036C55.4172 21.124 54.9174 21.8529 54.199 22.0403C53.4597 22.2382 52.71 21.8321 52.4705 20.9158C52.2414 20.0203 52.5955 19.2082 53.4389 18.9895ZM53.5742 19.6246C53.2306 19.7184 53.189 20.1557 53.3139 20.6451C53.4493 21.1657 53.7304 21.4885 54.0532 21.3948C54.376 21.3115 54.4489 20.9262 54.3031 20.3743C54.1677 19.8745 53.9282 19.5309 53.5742 19.6246Z" fill="white"/>
<defs>
<linearGradient id="paint0_linear_1_932" x1="21.7688" y1="36.9947" x2="21.7688" y2="3.0057" gradientUnits="userSpaceOnUse">
<stop stop-color="#CFCFD1"/>
<stop offset="0.2565" stop-color="#DCDCDE"/>
<stop offset="0.6633" stop-color="#EBEBED"/>
<stop offset="1" stop-color="#F0F0F2"/>
</linearGradient>
<linearGradient id="paint1_linear_1_932" x1="4.24319" y1="24.1858" x2="15.1512" y2="3.83704" gradientUnits="userSpaceOnUse">
<stop/>
<stop offset="0.0403" stop-color="#1D1D1D"/>
<stop offset="0.1434" stop-color="#606060"/>
<stop offset="0.2412" stop-color="#999999"/>
<stop offset="0.3308" stop-color="#C5C5C5"/>
<stop offset="0.4107" stop-color="#E5E5E5"/>
<stop offset="0.4778" stop-color="#F8F8F8"/>
<stop offset="0.5241" stop-color="white"/>
<stop offset="0.5672" stop-color="#F9F9F9"/>
<stop offset="0.6273" stop-color="#E6E6E6"/>
<stop offset="0.6974" stop-color="#C9C9C9"/>
<stop offset="0.7752" stop-color="#9F9F9F"/>
<stop offset="0.8591" stop-color="#6A6A6A"/>
<stop offset="0.9469" stop-color="#2A2A2A"/>
<stop offset="1"/>
</linearGradient>
<linearGradient id="paint2_linear_1_932" x1="81.5479" y1="36.7907" x2="81.5479" y2="3.28445" gradientUnits="userSpaceOnUse">
<stop stop-color="#CFCFD1"/>
<stop offset="0.2565" stop-color="#DCDCDE"/>
<stop offset="0.6633" stop-color="#EBEBED"/>
<stop offset="1" stop-color="#F0F0F2"/>
</linearGradient>
<linearGradient id="paint3_linear_1_932" x1="98.0255" y1="30.3228" x2="92.4158" y2="3.9309" gradientUnits="userSpaceOnUse">
<stop/>
<stop offset="0.0427" stop-color="#343434"/>
<stop offset="0.0882" stop-color="#636363"/>
<stop offset="0.1365" stop-color="#8D8D8D"/>
<stop offset="0.1869" stop-color="#B0B0B0"/>
<stop offset="0.2397" stop-color="#CDCDCD"/>
<stop offset="0.2959" stop-color="#E3E3E3"/>
<stop offset="0.357" stop-color="#F3F3F3"/>
<stop offset="0.4268" stop-color="#FCFCFC"/>
<stop offset="0.5241" stop-color="white"/>
<stop offset="0.5944" stop-color="#FCFCFC"/>
<stop offset="0.6556" stop-color="#F1F1F1"/>
<stop offset="0.7134" stop-color="#DFDFDF"/>
<stop offset="0.7691" stop-color="#C6C6C6"/>
<stop offset="0.8233" stop-color="#A5A5A5"/>
<stop offset="0.8765" stop-color="#7D7D7D"/>
<stop offset="0.9287" stop-color="#4E4E4E"/>
<stop offset="0.979" stop-color="#191919"/>
<stop offset="1"/>
</linearGradient>
<linearGradient id="paint4_linear_1_932" x1="51.6583" y1="40.0007" x2="51.6583" y2="-0.00131041" gradientUnits="userSpaceOnUse">
<stop stop-color="#CFCFD1"/>
<stop offset="0.2565" stop-color="#DCDCDE"/>
<stop offset="0.6633" stop-color="#EBEBED"/>
<stop offset="1" stop-color="#F0F0F2"/>
</linearGradient>
<linearGradient id="paint5_linear_1_932" x1="30.4797" y1="24.8633" x2="43.5025" y2="0.569462" gradientUnits="userSpaceOnUse">
<stop/>
<stop offset="0.0403" stop-color="#1D1D1D"/>
<stop offset="0.1434" stop-color="#606060"/>
<stop offset="0.2412" stop-color="#999999"/>
<stop offset="0.3308" stop-color="#C5C5C5"/>
<stop offset="0.4107" stop-color="#E5E5E5"/>
<stop offset="0.4778" stop-color="#F8F8F8"/>
<stop offset="0.5241" stop-color="white"/>
<stop offset="0.5672" stop-color="#F9F9F9"/>
<stop offset="0.6273" stop-color="#E6E6E6"/>
<stop offset="0.6974" stop-color="#C9C9C9"/>
<stop offset="0.7752" stop-color="#9F9F9F"/>
<stop offset="0.8591" stop-color="#6A6A6A"/>
<stop offset="0.9469" stop-color="#2A2A2A"/>
<stop offset="1"/>
</linearGradient>
<linearGradient id="paint6_linear_1_932" x1="71.0752" y1="32.1447" x2="64.3779" y2="0.636262" gradientUnits="userSpaceOnUse">
<stop/>
<stop offset="0.0427" stop-color="#343434"/>
<stop offset="0.0882" stop-color="#636363"/>
<stop offset="0.1365" stop-color="#8D8D8D"/>
<stop offset="0.1869" stop-color="#B0B0B0"/>
<stop offset="0.2397" stop-color="#CDCDCD"/>
<stop offset="0.2959" stop-color="#E3E3E3"/>
<stop offset="0.357" stop-color="#F3F3F3"/>
<stop offset="0.4268" stop-color="#FCFCFC"/>
<stop offset="0.5241" stop-color="white"/>
<stop offset="0.5944" stop-color="#FCFCFC"/>
<stop offset="0.6556" stop-color="#F1F1F1"/>
<stop offset="0.7134" stop-color="#DFDFDF"/>
<stop offset="0.7691" stop-color="#C6C6C6"/>
<stop offset="0.8233" stop-color="#A5A5A5"/>
<stop offset="0.8765" stop-color="#7D7D7D"/>
<stop offset="0.9287" stop-color="#4E4E4E"/>
<stop offset="0.979" stop-color="#191919"/>
<stop offset="1"/>
</linearGradient>
</defs>
</svg>
