<svg width="274" height="274" viewBox="0 0 274 274" fill="none" xmlns="http://www.w3.org/2000/svg">
<g filter="url(#filter0_d_1_719)">
<circle cx="137" cy="137" r="122" fill="#BBBBBB"/>
<circle cx="137" cy="137" r="115" fill="#1A36A8"/>
<g clip-path="url(#clip0_1_719)">
<path d="M133.502 77.4625C134.57 77.4625 135.436 76.5969 135.436 75.5291C135.436 74.4612 134.57 73.5956 133.502 73.5956C132.435 73.5956 131.569 74.4612 131.569 75.5291C131.569 76.5969 132.435 77.4625 133.502 77.4625Z" fill="white"/>
<path d="M175.967 75.0915H158.024C157.405 74.1889 156.367 73.5956 155.193 73.5956H141.812C140.924 69.7419 137.514 67 133.502 67C129.491 67 126.081 69.7419 125.193 73.5956H111.812C110.638 73.5956 109.6 74.1889 108.981 75.0915H91.0377C88.9491 75.0915 87.2505 76.7905 87.2505 78.8784V195.213C87.2505 197.301 88.9496 199 91.0377 199H175.967C178.056 199 179.754 197.301 179.754 195.213V151.64C180.018 151.547 180.266 151.395 180.478 151.184L194.414 137.247C195.17 136.492 195.17 135.268 194.414 134.513L190.389 130.487L191.673 129.203C192.047 128.829 192.278 128.351 192.339 127.833L195.656 124.517C197.115 123.058 197.115 120.684 195.655 119.224L192.939 116.508C191.48 115.048 189.105 115.048 187.646 116.508L184.328 119.825C183.828 119.885 183.344 120.106 182.961 120.489L179.754 123.695V78.8784C179.754 76.7905 178.056 75.0915 175.967 75.0915ZM163.71 151.697L160.466 148.453C162.303 146.615 176.548 132.371 178.745 130.174L181.989 133.418L163.71 151.697ZM166.728 175.395C164.4 179.901 160.66 183.644 156.149 185.974C156.348 185.623 156.555 185.211 156.733 184.804C157.424 183.221 157.786 181.515 157.803 179.805C157.805 179.695 157.804 179.672 157.804 177.605C157.804 177.299 158.053 177.05 158.359 177.05C160.494 177.05 160.58 177.054 160.924 177.04C162.426 176.982 163.9 176.662 165.282 176.096C165.282 176.096 165.282 176.096 165.282 176.095C165.775 175.894 166.262 175.658 166.728 175.395ZM148.675 166.732L145.431 163.488L157.731 151.188L160.975 154.432L148.675 166.732ZM145.694 169.22L140.003 173.285C139.641 173.543 139.148 173.462 138.879 173.101C138.681 172.833 138.701 172.408 138.928 172.09L142.943 166.469C143.863 167.389 144.853 168.379 145.694 169.22ZM175.887 127.562L173.309 130.141V85.5418C173.309 83.3334 171.512 81.5364 169.303 81.5364H158.622V78.9582H175.887V127.562H175.887ZM125.711 77.4628C127.304 77.4628 128.646 76.3287 128.902 74.7666C129.273 72.5073 131.207 70.8672 133.502 70.8672C135.797 70.8672 137.732 72.5073 138.102 74.7661C138.358 76.3287 139.7 77.4626 141.293 77.4626H154.755V86.7921H131.997C130.929 86.7921 130.064 87.6577 130.064 88.7256C130.064 89.7934 130.929 90.659 131.997 90.659H154.755V92.5333C154.755 93.1167 154.28 93.5912 153.697 93.5912H113.308C112.724 93.5912 112.25 93.1167 112.25 92.5333V90.659H122.974C124.042 90.659 124.908 89.7934 124.908 88.7256C124.908 87.6577 124.042 86.7921 122.974 86.7921H112.25V77.4628H125.711ZM91.1175 195.133V78.9587H108.383V81.5369H97.7011C95.4927 81.5369 93.6959 83.3337 93.6959 85.5424V103.54C93.6959 104.608 94.5613 105.474 95.6294 105.474C96.6975 105.474 97.5629 104.608 97.5629 103.54V85.5418C97.5629 85.4657 97.6247 85.4036 97.7009 85.4036H108.383V92.5333C108.383 95.249 110.592 97.4584 113.308 97.4584H153.696C156.412 97.4584 158.622 95.249 158.622 92.5333V85.4041H169.303C169.379 85.4041 169.441 85.466 169.441 85.5424V134.008C166.342 137.107 145.881 157.568 142.52 160.93C141.654 161.796 140.858 162.734 140.143 163.735L135.781 169.842C134.567 171.542 134.564 173.779 135.776 175.408C137.31 177.471 140.153 177.93 142.25 176.432L148.428 172.02C149.4 171.325 150.347 170.529 151.233 169.643C152.955 167.922 167.042 153.834 169.442 151.435V164.153C169.442 169.124 165.4 173.183 160.412 173.183H157.943C155.734 173.183 153.937 174.981 153.937 177.19V179.658C153.937 184.637 149.886 188.688 144.907 188.688H97.7011C97.625 188.688 97.5631 188.626 97.5631 188.55V112.563C97.5631 111.495 96.6978 110.63 95.6297 110.63C94.5616 110.63 93.6962 111.495 93.6962 112.563V188.55C93.6962 190.758 95.493 192.555 97.7014 192.555H144.907C152.494 192.555 159.627 189.601 164.99 184.236C170.355 178.872 173.309 171.74 173.309 164.153V147.567L175.888 144.989V195.133H91.1175V195.133ZM190.312 135.88L179.754 146.438V141.122C182.297 138.579 185.117 135.759 187.654 133.222L190.312 135.88ZM190.38 119.242C190.38 119.242 190.38 119.242 190.38 119.242C190.38 119.242 190.38 119.242 190.379 119.242L190.38 119.242ZM190.292 119.33L192.833 121.871L190.233 124.47L187.692 121.929L190.292 119.33ZM184.607 124.312L187.851 127.556C187.743 127.664 185.27 130.137 184.724 130.683L181.479 127.439L184.607 124.312Z" fill="white"/>
<path d="M127.669 150.59C128.586 151.492 130.08 151.493 130.998 150.59L136.752 144.935C137.514 144.186 137.525 142.962 136.776 142.2C136.028 141.439 134.804 141.428 134.042 142.177L129.333 146.804L115.619 133.327L119.276 129.733L127.67 137.982C128.587 138.884 130.08 138.884 130.998 137.982L147.729 121.54L151.386 125.133L140.515 135.816C139.754 136.564 139.743 137.788 140.491 138.55C141.24 139.312 142.464 139.322 143.226 138.574L155.19 126.816C155.639 126.375 155.897 125.761 155.897 125.133C155.897 124.504 155.639 123.891 155.191 123.45L149.393 117.753C148.476 116.852 146.983 116.852 146.065 117.753L129.334 134.195L120.941 125.947C120.023 125.045 118.529 125.045 117.612 125.947L111.814 131.644C111.359 132.091 111.109 132.689 111.109 133.327C111.109 133.964 111.359 134.562 111.815 135.009L127.669 150.59Z" fill="white"/>
</g>
</g>
<defs>
<filter id="filter0_d_1_719" x="0" y="0" width="274" height="274" filterUnits="userSpaceOnUse" color-interpolation-filters="sRGB">
<feFlood flood-opacity="0" result="BackgroundImageFix"/>
<feColorMatrix in="SourceAlpha" type="matrix" values="0 0 0 0 0 0 0 0 0 0 0 0 0 0 0 0 0 0 127 0" result="hardAlpha"/>
<feOffset/>
<feGaussianBlur stdDeviation="7.5"/>
<feComposite in2="hardAlpha" operator="out"/>
<feColorMatrix type="matrix" values="0 0 0 0 0 0 0 0 0 0.2 0 0 0 0 0.513726 0 0 0 0.38 0"/>
<feBlend mode="normal" in2="BackgroundImageFix" result="effect1_dropShadow_1_719"/>
<feBlend mode="normal" in="SourceGraphic" in2="effect1_dropShadow_1_719" result="shape"/>
</filter>
<clipPath id="clip0_1_719">
<rect width="132" height="132" fill="white" transform="translate(76 67)"/>
</clipPath>
</defs>
</svg>
