<svg width="244" height="244" viewBox="0 0 244 244" fill="none" xmlns="http://www.w3.org/2000/svg">
<circle cx="122" cy="122" r="122" fill="#BBBBBB"/>
<circle cx="122" cy="122" r="115" fill="#1A36A8"/>
<path d="M93.125 68.375H97.25V72.5H93.125V68.375Z" fill="white"/>
<path d="M101.375 68.375H117.875V72.5H101.375V68.375Z" fill="white"/>
<path d="M140.562 148.812C140.559 151.547 139.472 154.168 137.538 156.101C135.605 158.034 132.984 159.122 130.25 159.125H92.5722L99.6631 146.845C99.4388 147.477 99.3204 148.142 99.3125 148.812C99.3125 150.454 99.9644 152.027 101.125 153.188C102.285 154.348 103.859 155 105.5 155H113.75C115.391 155 116.965 154.348 118.125 153.188C119.286 152.027 119.937 150.454 119.937 148.812C119.937 147.171 119.286 145.598 118.125 144.437C116.965 143.277 115.391 142.625 113.75 142.625H105.5C104.518 142.627 103.55 142.863 102.678 143.314C101.806 143.765 101.053 144.417 100.484 145.218C101.303 143.288 101.355 141.119 100.629 139.152C99.903 137.186 98.4539 135.57 96.5775 134.636C94.7011 133.701 92.5388 133.518 90.532 134.123C88.5251 134.729 86.8249 136.077 85.7784 137.894L78.7659 150.046C78.715 149.637 78.6888 149.225 78.6875 148.812V74.5625C78.6908 71.8285 79.7783 69.2073 81.7116 67.2741C83.6448 65.3408 86.2659 64.2533 89 64.25H130.25C132.059 64.2542 133.836 64.7325 135.403 65.6372C136.97 66.5419 138.272 67.8414 139.181 69.4062L142.751 67.3438C141.479 65.1533 139.656 63.3341 137.463 62.0676C135.27 60.801 132.783 60.1312 130.25 60.125H89C85.1723 60.1294 81.5026 61.6519 78.7959 64.3585C76.0893 67.0651 74.5668 70.7348 74.5625 74.5625V114.369C73.2499 114.98 72.1931 116.031 71.576 117.341L62.2143 137.65C60.8284 140.629 60.1151 143.877 60.125 147.162V183.875H64.25V147.162C64.2408 144.476 64.8239 141.82 65.9577 139.385L74.5625 120.715V148.812C74.5611 151.276 75.1924 153.698 76.396 155.848C76.5513 156.195 76.7999 156.493 77.1141 156.709C77.4283 156.924 77.796 157.048 78.1764 157.067C78.5567 157.086 78.9349 156.999 79.2691 156.816C79.6032 156.633 79.8802 156.362 80.0694 156.031L89.3506 139.956C89.9015 139.016 90.8017 138.333 91.8548 138.054C92.9079 137.776 94.0284 137.925 94.9717 138.47C95.9151 139.015 96.6047 139.91 96.8901 140.962C97.1755 142.013 97.0335 143.134 96.4951 144.081L87.2139 160.156C87.0294 160.475 86.9339 160.838 86.9372 161.207C86.9404 161.575 87.0424 161.936 87.2324 162.252L91.6503 169.594C92.614 171.201 93.1236 173.038 93.125 174.911V183.854H97.25V174.911C97.2497 172.29 96.5367 169.718 95.1875 167.47L92.6485 163.25H130.25C134.078 163.246 137.747 161.723 140.454 159.017C143.161 156.31 144.683 152.64 144.687 148.812V138.5H140.562V148.812ZM105.5 146.75H113.75C114.297 146.75 114.822 146.967 115.208 147.354C115.595 147.741 115.812 148.265 115.812 148.812C115.812 149.36 115.595 149.884 115.208 150.271C114.822 150.658 114.297 150.875 113.75 150.875H105.5C104.953 150.875 104.428 150.658 104.042 150.271C103.655 149.884 103.437 149.36 103.437 148.812C103.437 148.265 103.655 147.741 104.042 147.354C104.428 146.967 104.953 146.75 105.5 146.75Z" fill="white"/>
<path d="M177.914 84.5037C173.276 77.8643 166.358 73.1625 158.477 71.2937C150.596 69.4248 142.303 70.5194 135.177 74.3689C128.052 78.2185 122.59 84.5543 119.833 92.1699C117.076 99.7854 117.216 108.149 120.226 115.668L113.255 127.486C113.054 127.826 112.955 128.217 112.969 128.612C112.984 129.007 113.112 129.389 113.338 129.714C113.569 130.037 113.888 130.289 114.256 130.438C114.625 130.588 115.029 130.63 115.421 130.559L128.889 128.043C133.462 132.143 139.092 134.879 145.141 135.942C147.042 136.269 148.967 136.435 150.896 136.437C156.932 136.436 162.853 134.778 168.013 131.645C173.173 128.512 177.375 124.023 180.161 118.668C182.948 113.313 184.211 107.295 183.815 101.272C183.419 95.2478 181.378 89.4481 177.914 84.5037ZM179.317 108.449C178.41 113.594 176.124 118.397 172.702 122.345C169.281 126.294 164.852 129.24 159.889 130.87C154.925 132.5 149.612 132.752 144.516 131.601C139.42 130.449 134.732 127.936 130.951 124.331C130.564 123.972 130.056 123.773 129.528 123.774C129.404 123.77 129.28 123.777 129.157 123.794L119.113 125.671L124.31 116.885C124.472 116.602 124.567 116.286 124.588 115.961C124.61 115.636 124.557 115.31 124.434 115.008C122.133 109.802 121.437 104.029 122.433 98.4256C123.762 90.8823 128.034 84.1761 134.307 79.7821C137.414 77.6064 140.919 76.0639 144.621 75.2426C148.324 74.4214 152.152 74.3374 155.887 74.9956C159.622 75.6538 163.191 77.0411 166.39 79.0786C169.588 81.116 172.355 83.7635 174.53 86.8699C176.706 89.9764 178.249 93.481 179.07 97.1836C179.891 100.886 179.975 104.714 179.317 108.449Z" fill="white"/>
<path d="M165.312 91.0625H159.125V89C159.125 86.812 158.256 84.7135 156.709 83.1664C155.161 81.6192 153.063 80.75 150.875 80.75C148.687 80.75 146.589 81.6192 145.041 83.1664C143.494 84.7135 142.625 86.812 142.625 89V91.0625H136.438C135.89 91.0625 135.366 91.2798 134.979 91.6666C134.592 92.0534 134.375 92.578 134.375 93.125V117.875C134.38 119.515 135.033 121.085 136.193 122.245C137.352 123.404 138.923 124.058 140.562 124.062H161.188C162.827 124.058 164.398 123.404 165.557 122.245C166.717 121.085 167.37 119.515 167.375 117.875V93.125C167.375 92.578 167.158 92.0534 166.771 91.6666C166.384 91.2798 165.86 91.0625 165.312 91.0625ZM146.75 89C146.75 87.906 147.185 86.8568 147.958 86.0832C148.732 85.3096 149.781 84.875 150.875 84.875C151.969 84.875 153.018 85.3096 153.792 86.0832C154.565 86.8568 155 87.906 155 89V91.0625H146.75V89ZM163.25 117.875C163.25 118.422 163.033 118.947 162.646 119.333C162.259 119.72 161.735 119.938 161.188 119.938H140.562C140.015 119.938 139.491 119.72 139.104 119.333C138.717 118.947 138.5 118.422 138.5 117.875V115.812H163.25V117.875ZM163.25 111.688H138.5V95.1875H142.625V99.3125H146.75V95.1875H155V99.3125H159.125V95.1875H163.25V111.688Z" fill="white"/>
<path d="M101.979 87.5419L98.803 90.7181C96.6651 89.3031 94.0778 88.7324 91.5429 89.1169C89.0081 89.5014 86.7064 90.8136 85.0842 92.7991C83.4621 94.7845 82.6351 97.3016 82.7637 99.8622C82.8923 102.423 83.9673 104.844 85.7802 106.657C87.5931 108.47 90.0147 109.545 92.5753 109.674C95.1359 109.802 97.653 108.975 99.6385 107.353C101.624 105.731 102.936 103.429 103.321 100.895C103.705 98.3597 103.134 95.7724 101.719 93.6345L104.896 90.4582L101.979 87.5419ZM99.3125 99.3126C99.3125 100.536 98.9496 101.733 98.2697 102.75C97.5898 103.768 96.6234 104.561 95.4928 105.029C94.3622 105.497 93.1181 105.62 91.9178 105.381C90.7176 105.142 89.6151 104.553 88.7497 103.688C87.8844 102.822 87.2951 101.72 87.0563 100.52C86.8176 99.3194 86.9401 98.0753 87.4084 96.9447C87.8768 95.8141 88.6698 94.8477 89.6874 94.1678C90.7049 93.4879 91.9012 93.1251 93.125 93.1251C94.0438 93.1286 94.9499 93.3402 95.7753 93.7438L89.6043 99.9148L92.5206 102.831L98.6937 96.6622C99.0974 97.4877 99.3089 98.3937 99.3125 99.3126Z" fill="white"/>
<path d="M107.562 93.125H115.812V97.25H107.562V93.125Z" fill="white"/>
<path d="M107.562 101.375H115.812V105.5H107.562V101.375Z" fill="white"/>
</svg>
