<svg width="231" height="10" viewBox="0 0 231 5" fill="none" xmlns="http://www.w3.org/2000/svg">
<path opacity="1" d="M116.64 0.245423C113.733 0.285201 109.969 0.463646 107.084 0.428706C106.272 0.575223 105.449 0.653126 104.626 0.642208L104.529 0.421391L103.766 0.493771C103.456 0.425588 104.353 0.45177 103.801 0.371517L103.516 0.508885C103.456 0.43242 101.548 0.45957 102.831 0.30274L99.8579 0.313734C99.1973 0.306309 99.4776 0.496892 98.7502 0.447018C98.6029 0.382326 99.0138 0.404865 98.9476 0.321423C96.7589 0.164821 96.4262 0.759082 94.3916 0.660486L94.5674 0.630107C94.2226 0.69101 93.5619 0.690417 93.5547 0.717601C93.821 0.942055 93.9207 0.595643 94.539 0.725177C94.4889 0.915464 93.762 0.831428 93.807 0.975925C93.4163 0.953822 93.025 0.972713 92.633 1.0326C91.9268 0.921669 90.9074 1.00902 90.3702 0.867564C89.8893 1.01438 89.3957 1.10624 88.8897 1.12949C88.3525 0.988038 89.0132 0.988632 88.2859 0.938757L88.1695 1.05243C87.5697 1.03948 87.6645 1.00736 87.6855 0.95997C87.2463 1.02567 86.8008 1.05706 86.356 1.04746L86.8026 0.940911C86.2085 0.989599 85.9661 0.970696 85.1436 0.966611C85.1581 0.905411 85.4884 0.905708 85.7376 0.924756C85.2883 0.764697 84.9746 0.997135 84.7321 0.985065C84.7988 1.03435 85.3717 1.04671 85.0936 1.1569C84.6825 1.14119 84.2215 1.30894 83.9335 1.18653L84.3801 1.07999C83.9066 1.17912 83.4274 1.21661 82.9492 1.18579C83.0032 1.18012 82.9766 1.15221 82.9973 1.12532C82.2207 1.20424 81.4318 1.21454 80.6508 1.14301L80.8265 1.11263C80.4551 1.15245 80.2581 1.25072 80.0559 1.24635C80.5809 1.30553 80.4388 1.33664 80.4844 1.44014C79.7927 1.26118 79.4361 1.65672 78.305 1.55712C78.3194 1.49592 78.5903 1.41975 78.9062 1.48125C79.2334 1.24227 79.62 1.09342 80.0185 1.04734C79.593 1.09284 79.0869 1.12292 79.196 1.04326L79.0653 1.21813C78.8089 1.22627 78.6001 1.21493 78.4045 1.21754C78.295 1.32453 78.9278 1.39287 78.3333 1.46888C77.6582 1.52949 77.9718 1.29705 77.8696 1.37002C76.9381 1.4456 77.4892 1.56001 76.5933 1.5065C76.7015 1.4815 76.8163 1.47031 76.9308 1.47962C76.2845 1.41782 75.3525 1.52073 75.1601 1.31837C75.2624 1.23856 75.3911 1.20033 75.5189 1.2236L75.4851 1.2297C76.1886 1.07402 74.8979 1.2717 75.1164 1.08505C75.1687 1.19553 74.2656 1.17604 73.8544 1.16716L73.9874 1.29305C72.6397 1.68771 74.0586 1.04171 72.7159 1.10841C71.8649 1.20623 73.039 1.14273 72.5185 1.23401C71.9801 1.16771 71.4343 1.14909 70.8879 1.17147C70.6526 1.12538 70.1749 1.0604 70.1298 0.92273C69.5165 0.909491 68.9024 0.944077 68.2878 1.01966C69.1626 1.12739 69.1532 0.86064 70.1753 1.03307L69.89 1.17727C69.1821 1.17565 68.2774 1.25864 67.7926 1.21401C67.8934 1.23669 67.9332 1.27855 67.8722 1.30457C67.1222 1.41141 66.3594 1.47012 65.5974 1.48101C65.4645 1.35512 66.0374 1.36748 66.4556 1.35601C65.9102 1.31006 65.3642 1.29828 64.8177 1.32749C64.7654 1.21701 65.4784 1.32808 65.588 1.21426L64.5018 1.25916C64.5087 1.25247 64.5021 1.24549 64.5022 1.23866C64.351 1.42676 63.673 1.23443 63.0113 1.29533C62.128 1.3036 61.2223 1.44808 60.362 1.71656C60.1268 1.67047 60.0601 1.62119 60.1552 1.5754C60.545 1.65216 60.4718 1.58907 60.6075 1.53732C60.0745 1.55999 59.4437 1.36867 59.7415 1.29309C58.8977 1.35689 60.0501 1.3886 59.53 1.45255L58.3771 1.455C58.5173 1.54688 58.9216 1.56244 58.327 1.64529C57.8209 1.67537 57.5784 1.6633 56.9244 1.66286C57.0195 1.61707 56.7108 1.52155 57.2098 1.51865C56.8734 1.47039 56.5292 1.49713 56.2043 1.57896C56.9245 1.65602 55.023 1.67649 55.5669 1.81808L54.8331 1.74757C54.995 1.74423 55.0161 1.68317 55.2586 1.69524C55.0518 1.55409 54.6713 1.74408 54.4216 1.76602C54.0979 1.76587 53.7747 1.73839 53.4519 1.68358C53.1546 1.73184 52.8515 1.71163 52.5627 1.63705C52.2251 1.67077 52.5343 1.73212 52.4392 1.77791L51.2862 1.78719C51.2199 1.71058 51.1222 1.48976 51.2979 1.45938C50.8652 1.53889 51.146 1.69531 50.4919 1.7017C50.8652 1.53889 49.617 1.6008 50.1593 1.40747C49.4797 1.31762 48.7923 1.30278 48.1102 1.3769C47.7442 1.50569 48.7565 1.43869 48.7142 1.5608C47.0478 1.63419 46.9481 1.9806 45.7284 1.9406L46.0449 1.96793C45.667 1.98712 45.2953 2.04744 44.9297 2.1489C45.1344 1.98929 44.0526 1.74723 42.8045 1.8023C42.7021 1.88211 43.5103 1.94056 43.3061 2.06601L42.483 2.10292C42.4225 2.09478 42.5106 2.06251 42.6188 2.04434C41.8761 2.11032 41.2259 1.86391 41.0141 2.0507L40.2487 1.83598L40.5508 1.92452C40.1856 1.99865 39.814 2.05214 39.4429 2.07146C38.9021 2.16231 38.3428 2.1434 37.8053 2.02244C37.9526 2.08714 38.3281 2.2251 37.6601 2.25852C37.664 2.00572 36.2521 2.18712 36.2675 2.06443C35.9977 2.07227 35.5132 2.00714 35.4846 2.11587L35.5274 1.9596C35.4702 2.17707 34.4788 2.19668 33.7229 2.24871C33.8894 1.94475 32.893 2.29231 32.5464 2.03194C32.4083 2.24084 31.203 2.14647 31.0789 2.32149C30.4921 2.343 30.5488 2.15969 30.4014 2.095L30.1305 2.178C29.8352 2.08961 28.7427 2.10703 28.0895 2.05876L27.4865 2.25078L27.2584 2.17751C27.1633 2.2233 26.6637 2.26719 26.973 2.32171L26.6494 2.32156C26.6262 2.51926 26.19 2.38682 25.5345 2.48886C25.3799 2.45818 25.421 2.41123 25.563 2.38695C25.2392 2.39364 25.3757 2.28723 25.1946 2.22864C25.4298 2.27473 24.0292 2.60672 24.9114 2.67361C24.9776 2.75022 24.4642 2.82115 24.141 2.79367L23.9413 2.62533L23.5607 2.82215C23.1832 2.82084 22.806 2.79902 22.436 2.7432C22.8543 2.72489 23.3517 2.38023 22.2792 2.41175C22.6573 2.37891 23.0358 2.3119 23.408 2.22425C23.1855 2.22628 23.0711 2.21014 23.4162 2.12874C22.579 2.20635 23.138 2.24576 22.308 2.28935C22.3509 2.13308 22.1156 2.087 21.388 2.05079L21.9326 2.15139C21.8986 2.17116 21.8646 2.19093 21.8308 2.19704C22.0396 2.20838 22.0999 2.23018 22.1462 2.29269C21.9843 2.29603 21.1855 2.51117 21.0453 2.41929C21.8914 2.64259 19.5923 2.64764 20.1297 2.77543C19.8861 2.83851 19.6367 2.83313 19.3949 2.77323C20.0846 2.63776 18.8647 2.61143 18.9743 2.49761C18.7174 2.54674 19.5256 2.59836 19.174 2.66595C18.8503 2.67263 18.5341 2.63163 18.2183 2.55647L18.3874 2.51911L17.7478 2.46429C17.6454 2.5441 18.3731 2.57348 17.7856 2.63598C17.631 2.6053 17.0368 2.66765 17.0579 2.6066C17.3361 2.48958 17.1292 2.35526 17.6287 2.31136C17.2104 2.33651 15.888 2.39681 16.4254 2.5246L15.9264 2.53433C16.2424 2.58899 17.1175 2.67623 16.1188 2.73669L16.1261 2.70267L15.443 2.84512L15.1406 2.77708C15.1535 2.81837 15.045 2.85703 14.7887 2.86517C14.7219 2.82272 14.4726 2.8105 14.4938 2.74945C13.7449 2.78113 13.8112 2.85774 13.716 2.91036C13.2976 2.9355 13.1429 2.91166 13.3333 2.80641C12.6789 2.83329 12.0249 2.83285 11.3716 2.7914C10.6083 2.88428 11.533 2.81539 11.0861 2.94244C10.4158 2.68876 8.55144 2.92189 7.30975 2.99761C7.6569 3.22381 6.97203 3.03816 6.74619 3.25883C7.0106 3.16202 5.54848 3.10312 6.6423 2.99687L5.97413 3.04396C5.51738 2.93158 7.07511 2.91053 6.37634 2.75192C5.67986 2.88725 4.97736 2.9746 4.26895 3.00715C4.55483 2.82879 3.59352 3.08825 3.80546 2.89463C4.02871 2.84477 4.25164 2.81541 4.4809 2.81352L4.31956 2.7827C2.68116 2.78834 3.85782 2.99827 3.00611 3.14392C2.00748 3.19754 2.21217 3.03793 2.14591 2.96132C1.84272 2.94794 1.53227 2.96858 1.22794 3.03035C1.8366 2.9068 2.35961 3.09579 2.08141 3.21281C1.49629 3.11816 0.90246 3.15318 0.333407 3.33227C1.76712 3.48624 1.32478 3.31266 2.67057 3.48524C2.85358 3.42084 2.81574 3.24916 3.61746 3.28697C3.11695 3.39236 3.65645 3.3835 3.79767 3.40705C3.64401 3.31488 4.35822 3.34397 4.60169 3.29455C4.8298 3.36782 4.13269 3.54414 4.94831 3.55491L5.09348 3.31883C5.40331 3.33919 4.95599 3.49356 5.63142 3.41246C5.27203 3.54823 5.74994 3.59955 4.83871 3.66873C5.94196 3.82924 6.5132 3.50668 7.36449 3.38836C7.27656 3.40697 7.26941 3.43415 7.18148 3.45276C7.43179 3.39665 7.68852 3.36118 7.94484 3.35305C8.51068 3.38577 7.50478 3.47341 7.65223 3.53126L8.56293 3.49625C8.58305 3.50352 8.58294 3.51035 8.58294 3.51035C8.75901 3.45947 8.95467 3.45003 9.13603 3.49495C8.87182 3.5781 8.76274 3.65776 8.58636 3.72913L9.53316 3.53769C9.43081 3.6175 10.3271 3.64368 9.65167 3.72479L11.062 3.64588L11.1877 3.79895C11.5254 3.7584 11.5326 3.73122 11.1282 3.72249C11.6134 3.73979 13.2573 3.37204 13.0164 3.6949C14.1246 3.52746 14.5219 3.56337 15.8654 3.44201C14.8378 3.62487 17.0566 3.58391 15.9627 3.69016C16.3943 3.6858 16.8199 3.62665 17.2396 3.51952C17.7175 3.57084 17.5128 3.73045 16.9992 3.80822L17.6006 3.71868L17.5934 3.75269L18.1141 3.64775C18.6726 3.72131 18.2331 3.80068 18.806 3.81304L18.9228 3.67204L19.3127 3.74197C19.1653 3.68411 19.503 3.64356 19.9146 3.6251L19.9073 3.65912L20.4135 3.6222C19.9131 3.72076 20.8785 3.63908 20.6475 3.75028C21.0791 3.74593 21.0858 3.74607 21.8686 3.70146L21.7284 3.60958C22.7413 3.50159 21.7735 3.74725 22.5962 3.73767L22.5439 3.62719C23.7349 3.78275 24.5554 3.4724 25.4304 3.56647C24.931 3.60353 25.0571 3.72928 25.0711 3.69541C25.8271 3.63655 27.0542 3.6357 27.8319 3.48162C28.1863 3.67381 28.5962 3.76467 28.9944 3.73226C29.5813 3.71075 29.6625 3.692 29.8528 3.59359C30.4061 3.56453 30.9587 3.57646 31.5107 3.63621C31.6402 3.54333 32.023 3.64044 32.3276 3.55817L32.3944 3.60062L32.3422 3.49013C33.3501 3.71009 34.0304 3.30787 35.0456 3.50065L34.8697 3.53786L35.2952 3.48553C35.3619 3.53482 35.1929 3.56534 35.1717 3.6264L37.1476 3.6007L36.7577 3.52394C37.143 3.45708 37.5343 3.43819 37.9319 3.4536C37.147 3.63486 38.5859 3.44722 38.7189 3.57311L38.2933 3.62543C38.8735 3.60378 38.8735 3.60378 38.8212 3.4933C39.5704 3.44113 39.344 3.69596 40.0338 3.56049L39.5415 3.56353C39.3942 3.49884 39.7462 3.40392 40.0766 3.40421C40.1573 3.41963 40.3925 3.46571 40.1361 3.48068C40.7302 3.42516 41.6195 3.47169 41.8764 3.42256C42.1996 3.45004 42.0973 3.52985 41.9215 3.56023C43.184 3.44396 42.4944 3.5726 43.7638 3.44964L43.7426 3.51069L44.1753 3.43118L44.8005 3.55403L44.5792 3.47407C44.9641 3.43454 45.3553 3.42248 45.7395 3.43077L45.5425 3.52904C46.7166 3.4587 46.9024 3.66091 48.017 3.51411C48.091 3.52938 47.9219 3.5599 47.834 3.57851C48.868 3.41629 48.6205 3.73217 49.655 3.5358C49.5938 3.56865 49.7079 3.60529 49.667 3.63174L50.14 3.56677L50.1043 3.69586L50.4847 3.50587L50.7795 3.62842L50.9625 3.56403C51.4714 3.79372 52.1822 3.60402 52.8809 3.76947L52.7619 3.61654C54.5001 3.25082 56.7581 3.73014 58.8643 3.5569L58.8287 3.67915L59.7006 3.54078C60.1711 3.63295 59.4225 3.65096 59.5698 3.71566C60.5015 3.63325 59.957 3.52581 61.0365 3.47393C61.5949 3.55433 60.8462 3.57235 60.5826 3.6145C61.656 3.52148 62.7353 3.48327 63.8136 3.51338C63.8273 3.5 63.8749 3.47369 63.8346 3.46599C64.5097 3.40538 65.4058 3.44523 66.1476 3.4339C66.1264 3.49496 65.9442 3.5047 65.762 3.51443C66.0515 3.54118 66.3416 3.53378 66.6254 3.49206L66.3473 3.60224C66.948 3.5537 67.5547 3.55996 68.1537 3.62757C68.0871 3.57829 68.1087 3.48307 68.6076 3.48701C68.8811 3.67745 69.9507 3.39298 70.7448 3.4853C70.6498 3.53109 70.0697 3.54591 70.2315 3.5494C70.602 3.57107 70.9734 3.53124 71.3321 3.43647L71.2298 3.51627L73.0791 3.38533C73.3594 3.57591 74.8193 3.33405 74.6958 3.47491C75.3565 3.4755 74.1442 3.39465 74.9739 3.36472C75.1952 3.44468 75.7297 3.31953 75.694 3.44861L75.6062 3.46039L76.1863 3.44557L75.8203 3.56753C76.3197 3.5373 76.6924 3.41549 76.714 3.32027C77.1725 3.32333 77.6304 3.36055 78.0877 3.43194L77.912 3.46232C79.2478 3.4023 80.132 3.78362 81.1803 3.56704C81.2609 3.58245 81.2469 3.61632 81.0852 3.61283L81.9144 3.61706L81.7175 3.7085L83.0817 3.55341L83.0673 3.61461C83.9704 3.63411 85.3802 3.58936 86.5402 3.56656L86.3644 3.59694C87.6335 3.49447 87.5907 3.65074 88.5155 3.57502C88.4883 3.58811 88.4544 3.60104 88.4207 3.60032L89.2568 3.59103L89.0738 3.65542C89.5395 3.62447 89.9977 3.64119 90.4619 3.70589C90.8199 3.66578 91.1716 3.59135 91.517 3.48946C92.4274 3.47494 91.7382 3.56941 92.3039 3.6158C92.9646 3.61639 93.0741 3.5094 93.9701 3.55608L93.9556 3.61728C94.3738 3.6058 94.6308 3.55667 95.2107 3.54869L95.0349 3.57907C95.9809 3.44229 96.2188 3.76182 96.9579 3.48388C97.3549 3.53346 98.1106 3.4951 98.075 3.61735C99.2561 3.5335 100.174 3.49179 101.348 3.44195C101.54 3.64431 101.597 3.42684 102.31 3.54474L102.258 3.43426C103.917 3.4154 105.821 3.68204 107.648 3.63264L107.701 3.74312L108.067 3.62117C110.035 3.67048 112.583 3.69815 114.153 3.70472C114.85 3.59672 115.558 3.54368 116.266 3.55895L116.178 3.57756C117.602 3.5126 119.099 3.46975 120.649 3.53737C120.553 3.58316 120.708 3.61384 120.532 3.64421C120.945 3.57793 121.363 3.58012 121.773 3.64366L121.383 3.56006C121.816 3.48738 122.26 3.51065 122.683 3.63597L123.379 3.51431C123.426 3.52216 123.494 3.54411 123.507 3.55806L123.629 3.49919L123.998 3.64384C124.463 3.61972 124.929 3.5546 125.383 3.44137C125.45 3.49065 126.103 3.52526 125.597 3.55534L128.145 3.6035L127.748 3.55392C127.695 3.44344 128.465 3.37804 128.855 3.42747C128.335 3.51876 128.812 3.58374 129.034 3.6637C129.378 3.6028 128.732 3.56833 128.915 3.50394C129.442 3.42647 129.975 3.4038 130.5 3.44248L130.243 3.48477C130.837 3.44292 131.111 3.64019 131.691 3.62537C132.211 3.53409 132.601 3.62452 132.489 3.43074C133.245 3.39237 132.784 3.56012 133.026 3.57902C133.54 3.50126 134.065 3.52627 134.576 3.64665C134.991 3.36856 136.61 3.75208 136.769 3.52312L137.387 3.65949C137.408 3.59844 137.532 3.45758 138.031 3.43418C138.502 3.50586 138.392 3.61285 138.54 3.67754L138.86 3.44524C141.593 3.70928 145.196 3.55468 148.193 3.76973C149.529 3.72338 151.216 3.62994 152.772 3.67721L152.596 3.70759L154.146 3.78205L153.022 3.66893C153.359 3.64204 153.623 3.59989 153.953 3.60702C155.973 3.76682 158.002 3.81061 160.026 3.74494C161.385 3.48723 160.925 3.9899 162.229 3.79935C162.121 3.82435 162.073 3.86432 161.979 3.88962C163.382 3.81056 164.138 3.7722 165.542 3.62482C165.383 3.88793 166.453 3.62396 166.329 3.76482L166.445 3.65798C166.754 3.72616 167.489 3.75569 167.387 3.83549L168.009 3.7054L168.061 3.81588C168.883 3.83363 170.644 3.76228 171.072 3.99023C173.104 3.84272 176.312 3.92564 178.859 3.9943C179.42 3.91755 179.98 3.88863 180.546 3.90085L181.164 4.03722C181.752 3.94056 182.339 3.91222 182.932 3.93869C182.932 3.95236 182.905 3.96544 182.864 3.9714C183.444 3.99758 184.024 3.98276 184.598 3.91314C185.258 3.9274 185.897 4.00954 185.693 4.12816C185.757 3.91083 187.088 4.17877 187.088 4.17877C187.088 4.17877 195.539 4.40904 205.023 4.53859C214.507 4.66814 225.024 4.7038 229.151 4.23928C229.388 4.14188 230.07 4.09509 229.829 3.96003C230.025 3.95059 230.227 3.96862 230.415 4.02052C230.469 4.03535 230.522 4.04334 230.576 4.05134C230.596 4.05178 230.617 4.05221 230.637 4.04582C230.644 4.04596 230.657 4.03942 230.664 4.03957L230.678 4.03302L230.685 4.02634C230.756 3.78866 230.82 3.55084 230.891 3.30633C230.827 3.52366 230.763 3.74781 230.706 3.96528C230.684 4.04683 230.691 4.01282 230.691 4.01965L230.678 4.01936L230.664 4.01907L230.637 4.01849L230.584 4.01049C230.557 4.00308 230.53 4.00249 230.503 3.98825C230.463 3.97371 230.443 3.95961 230.43 3.94565C230.41 3.91106 230.451 3.87777 230.485 3.84433C230.56 3.77078 230.649 3.69068 230.286 3.6145L230.772 3.60448C230.888 3.5318 230.097 3.66509 230.247 3.53847L230.075 3.73297C229.826 3.72076 229.584 3.66769 229.357 3.56709C228.868 3.77525 228.334 3.83892 227.81 3.75924L228.066 3.75111C227.318 3.74179 227.61 3.6114 227.455 3.57389L227.624 3.57753L226.998 3.46151C227.476 3.54017 228.267 3.40005 227.856 3.398C226.967 3.31731 228.084 3.45078 227.416 3.4637C226.998 3.46151 227.121 3.36165 227.136 3.29362L226.388 3.2843C226.416 3.18923 226.88 3.30175 226.578 3.19955L225.633 3.27484C225.461 3.03192 224.607 3.36204 224.185 3.12741C224.86 3.0873 224.126 3.04411 224.235 2.97128L222.577 2.94915C222.422 2.91165 223.016 2.88346 222.76 2.89159C222.531 2.86615 222.301 2.8817 222.078 2.93156C221.938 2.86701 220.845 2.91176 220.887 2.75549C219.763 2.62871 220.413 2.94345 219.363 2.83193C219.229 2.73337 220.192 2.8225 219.728 2.7168L218.643 2.72754C218.827 2.61532 219.05 2.5723 219.265 2.60428C216.328 2.41786 214.752 1.89175 212.061 1.97034C211.685 1.85288 212.331 1.90101 212.602 1.83167C210.652 1.94677 209.869 1.53347 208.211 1.51818L208.183 1.61325C205.875 1.28322 203.095 1.42141 200.489 1.25579L200.798 1.32398C200.345 1.38938 199.886 1.43415 199.427 1.44475C199.361 1.39547 199.74 1.24647 198.985 1.27801C199.139 1.31551 199.462 1.35666 199.367 1.39562C197.127 1.11487 192.394 1.11522 188.715 0.953794C183.733 0.955594 178.329 0.722762 173.434 0.733285C174.182 0.73577 173.862 0.961231 173.297 0.901184C171.759 0.492088 170.633 0.939368 169.06 0.659359C166.206 0.754961 163.663 0.399343 161.016 0.683927L160.964 0.573446C160.654 0.553089 160.35 0.560207 160.046 0.601486L160.054 0.567469C159.07 0.518899 157.882 0.623106 157.316 0.563059L157.281 0.685314C156.694 0.693153 156.979 0.589946 156.378 0.652153L156.392 0.590953L155.696 0.705782C155.767 0.488603 154.052 0.677115 153.581 0.571278C152.826 0.602809 151.395 0.688115 150.25 0.636052C149.415 0.522359 148.58 0.463324 147.738 0.458803C145.991 0.482612 143.503 0.504081 141.286 0.456215L141.324 0.600567L140.744 0.608552C140.751 0.574536 140.677 0.559271 140.758 0.547352C140.309 0.387293 139.423 0.5937 138.952 0.487863C139.247 0.617247 139.357 0.510258 139.687 0.517387C140.164 0.589207 139.711 0.722938 139.065 0.64748L139.078 0.613609L138.639 0.686141C138.594 0.575805 138.19 0.519249 138.144 0.408914C136.236 0.429231 134.939 0.613099 132.971 0.550119C133.175 0.424669 131.555 0.574224 131.949 0.364029C130.768 0.441053 132.142 0.539056 131.607 0.691538C131.277 0.684409 130.932 0.745312 130.873 0.668847C131.028 0.617535 130.605 0.540046 130.875 0.518536L130.086 0.535676C130.012 0.52041 130.188 0.490032 130.269 0.478113C128.662 0.60063 127.412 0.334437 125.974 0.460591C125.865 0.540251 126.547 0.486622 126.445 0.559596C124.993 0.712788 125.159 0.42249 123.809 0.530038L124.087 0.426686C123.647 0.540211 123.188 0.571312 122.737 0.506906C122.611 0.381159 123.346 0.40385 123.691 0.342946C123.198 0.339158 121.944 0.366756 122.327 0.484366C121.949 0.503548 121.572 0.468071 121.195 0.377936C121.188 0.411952 121.747 0.465021 121.402 0.519092C120.594 0.446975 119.354 0.447534 118.37 0.439957C118.377 0.405941 118.31 0.363492 118.398 0.344887C117.607 0.512337 117.692 0.227125 116.599 0.258214" fill="#003383"/>
</svg>
