<svg width="464" height="20" viewBox="0 0 464 11" fill="none" xmlns="http://www.w3.org/2000/svg">
<path opacity="1" d="M234.282 0.373102C228.445 0.407974 220.885 0.703351 215.09 0.591244C213.462 0.867929 211.808 1.00916 210.156 0.97532L209.957 0.538541L208.426 0.669798C207.804 0.530751 209.605 0.595795 208.496 0.42932L207.924 0.695852C207.804 0.544218 203.971 0.569148 206.547 0.279205L200.575 0.256329C199.248 0.231792 199.813 0.611704 198.351 0.502484C198.055 0.372744 198.88 0.423335 198.747 0.257846C194.349 -0.0836694 193.686 1.08286 189.599 0.858007L189.952 0.800752C189.26 0.91565 187.933 0.904581 187.919 0.958064C188.456 1.40454 188.652 0.723121 189.895 0.987747C189.797 1.36212 188.336 1.18557 188.428 1.4711C187.643 1.42167 186.857 1.45305 186.07 1.56523C184.651 1.33597 182.604 1.49289 181.524 1.20598C180.559 1.48821 179.569 1.66191 178.552 1.70016C177.472 1.41325 178.799 1.42432 177.338 1.3151L177.105 1.53746C175.9 1.50295 176.09 1.44104 176.132 1.34793C175.25 1.47086 174.356 1.52607 173.462 1.50048L174.358 1.29713C173.166 1.38421 172.679 1.34331 171.027 1.32294C171.055 1.2025 171.718 1.20804 172.219 1.24932C171.315 0.927052 170.687 1.38058 170.2 1.35315C170.334 1.4513 171.485 1.48426 170.928 1.69731C170.102 1.66019 169.178 1.98398 168.598 1.73835L169.494 1.535C168.544 1.72333 167.582 1.79007 166.621 1.72214C166.729 1.71177 166.676 1.65635 166.717 1.60364C165.158 1.74759 163.573 1.75609 162.004 1.60336L162.357 1.54611C161.611 1.61905 161.216 1.80982 160.81 1.79819C161.865 1.92271 161.58 1.9819 161.673 2.18663C160.282 1.82347 159.569 2.59789 157.296 2.38459C157.325 2.26416 157.868 2.11806 158.503 2.24403C159.158 1.77781 159.933 1.49016 160.733 1.4053C159.879 1.48861 158.863 1.54033 159.081 1.38492L158.82 1.72771C158.305 1.73991 157.886 1.71442 157.493 1.71664C157.274 1.92592 158.546 2.07011 157.352 2.21107C155.997 2.32043 156.625 1.8669 156.42 2.00923C154.55 2.14426 155.658 2.37807 153.858 2.25916C154.075 2.21149 154.305 2.19115 154.535 2.21121C153.237 2.07971 151.366 2.26861 150.977 1.8668C151.182 1.71101 151.44 1.63757 151.697 1.68534L151.629 1.69687C153.041 1.40051 150.45 1.77087 150.887 1.40619C150.993 1.62477 149.179 1.57281 148.353 1.54915L148.621 1.79932C145.918 2.55714 148.762 1.3049 146.066 1.41628C144.357 1.59636 146.715 1.48876 145.67 1.66091C144.588 1.52215 143.492 1.47727 142.395 1.5132C141.922 1.41882 140.961 1.28355 140.87 1.01148C139.638 0.97619 138.404 1.03517 137.171 1.17496C138.929 1.40045 138.907 0.874443 140.962 1.22968L140.39 1.50967C138.968 1.49589 137.152 1.64594 136.178 1.55068C136.381 1.5969 136.461 1.68003 136.339 1.73041C134.833 1.92978 133.302 2.0341 131.771 2.04415C131.503 1.79398 132.654 1.82694 133.494 1.81058C132.398 1.71183 131.301 1.68042 130.204 1.72982C130.098 1.51123 131.531 1.74089 131.75 1.51814L129.569 1.59038C129.582 1.5773 129.569 1.56345 129.569 1.54998C129.267 1.91854 127.903 1.52922 126.575 1.63935C124.801 1.64242 122.983 1.91368 121.258 2.43007C120.785 2.33569 120.65 2.23754 120.841 2.14869C121.625 2.30586 121.477 2.18039 121.749 2.0804C120.679 2.11711 119.41 1.7305 120.007 1.58595C118.313 1.69908 120.628 1.77887 119.584 1.89715L117.268 1.88471C117.551 2.06793 118.363 2.10466 117.17 2.25908C116.153 2.3108 115.666 2.28337 114.353 2.27269C114.543 2.18385 113.922 1.99093 114.924 1.99269C114.248 1.8925 113.557 1.94006 112.905 2.09652C114.353 2.25923 110.533 2.27107 111.627 2.55837L110.153 2.40836C110.478 2.4042 110.52 2.28415 111.007 2.31158C110.59 2.03021 109.828 2.39905 109.326 2.43857C108.676 2.43343 108.027 2.37441 107.378 2.26152C106.781 2.3522 106.172 2.30781 105.591 2.15646C104.914 2.21788 105.535 2.34346 105.345 2.4323L103.029 2.43333C102.895 2.28131 102.697 1.84453 103.049 1.78727C102.181 1.93753 102.746 2.2501 101.433 2.25289C102.181 1.93753 99.6744 2.04087 100.762 1.66786C99.3959 1.48055 98.015 1.441 96.6457 1.57691C95.9117 1.82532 97.9444 1.70841 97.8606 1.9485C94.5142 2.06819 94.3174 2.74961 91.8672 2.65248L92.5031 2.71111C91.7443 2.74327 90.9983 2.85661 90.2649 3.05115C90.6745 2.73957 88.4993 2.24617 85.9929 2.33604C85.7881 2.49183 87.4119 2.61917 87.003 2.86342L85.3501 2.92385C85.2284 2.90689 85.4051 2.8446 85.6222 2.8104C84.1312 2.92935 82.8228 2.43384 82.3991 2.79891L80.8598 2.36414L81.4673 2.5432C80.7345 2.68387 79.9886 2.78375 79.2434 2.81629C78.1581 2.98728 77.0345 2.94163 75.9537 2.69512C76.2503 2.82486 77.0057 3.10246 75.6644 3.15834C75.6697 2.66004 72.8356 2.99649 72.8653 2.75485C72.3234 2.76627 71.3498 2.63061 71.2933 2.84454L71.3778 2.53711C71.265 2.96497 69.2739 2.98877 67.7561 3.08001C68.0875 2.48328 66.0895 3.15352 65.3908 2.63505C65.1156 3.04479 62.6936 2.8407 62.4462 3.18388C61.2676 3.21748 61.3797 2.85695 61.0831 2.72722L60.5397 2.88678C59.9457 2.70811 57.7516 2.72609 56.439 2.62114L55.2298 2.99065L54.7709 2.84279C54.5803 2.93163 53.5773 3.01068 54.1991 3.12279L53.5491 3.11764C53.5044 3.50704 52.6269 3.23941 51.3112 3.43075C51.0004 3.36796 51.0826 3.27601 51.3675 3.23028C50.7173 3.2386 50.9904 3.03088 50.626 2.91267C51.099 3.00705 48.2889 3.64055 50.0615 3.78563C50.1953 3.93765 49.1646 4.06979 48.5152 4.01077L48.1125 3.67591L47.35 4.05822C46.5917 4.04998 45.8338 4.00132 45.0902 3.88572C45.9301 3.8559 46.9259 3.18389 44.7721 3.22997C45.5311 3.17088 46.2908 3.04446 47.0375 2.87724C46.5905 2.87791 46.3607 2.84438 47.053 2.68908C45.3722 2.82954 46.4953 2.9156 44.8288 2.98911C44.9133 2.68168 44.4403 2.5873 42.9785 2.50502L44.0733 2.71151C44.0052 2.74997 43.9371 2.78843 43.8692 2.79996C44.2888 2.82545 44.4102 2.86934 44.5037 2.99327C44.1786 2.99743 42.5762 3.40956 42.2937 3.22634C43.9954 3.67923 39.3775 3.65473 40.4581 3.91471C39.9693 4.03542 39.4684 4.02107 38.9821 3.89937C40.3662 3.64264 37.9157 3.57245 38.1347 3.3497C37.6191 3.44271 39.2431 3.55658 38.5375 3.68456C37.8873 3.69288 37.2517 3.60732 36.6168 3.45441L36.9561 3.3833L35.6708 3.26566C35.466 3.42145 36.9279 3.49027 35.7485 3.60467C35.4376 3.54188 34.2446 3.6559 34.2865 3.53586C34.8442 3.30934 34.4272 3.04143 35.4302 2.96239C34.5901 3.00568 31.9346 3.10476 33.0153 3.36473L32.013 3.37643C32.6483 3.48893 34.407 3.67402 32.4015 3.77824L32.4158 3.71129L31.045 3.98187L30.4371 3.84322C30.4633 3.9248 30.2458 3.9994 29.7311 4.0116C29.5965 3.92691 29.0957 3.8991 29.1376 3.77905C27.6338 3.83028 27.7676 3.9823 27.577 4.08461C26.7368 4.12791 26.4259 4.07858 26.8072 3.87396C25.4931 3.91715 24.1795 3.90647 22.8668 3.81498C21.3347 3.98664 23.1913 3.86469 22.2949 4.10845C20.946 3.5983 17.2036 4.02997 14.7103 4.16063C15.4098 4.61176 14.0324 4.23552 13.5809 4.66715C14.111 4.48026 11.1737 4.34224 13.3697 4.14918L12.028 4.23199C11.1095 4.00361 14.2381 3.98545 12.8331 3.6623C11.4355 3.91864 10.0253 4.08033 8.60269 4.13388C9.17517 3.78654 7.2468 4.28365 7.67064 3.90511C8.11856 3.81016 8.56606 3.75562 9.02653 3.75534L8.70216 3.69217C5.41136 3.67874 7.77682 4.11022 6.06749 4.38458C4.06217 4.47533 4.47176 4.16374 4.33794 4.01172C3.72883 3.98081 3.10547 4.01684 2.49479 4.13406C3.71614 3.89961 4.76847 4.28002 4.21081 4.50653C3.03464 4.31118 1.84222 4.37133 0.700963 4.71585C3.58218 5.04086 2.69204 4.69205 5.39682 5.05243C5.7638 4.92822 5.68613 4.58921 7.29683 4.67576C6.29253 4.87601 7.37607 4.86663 7.65995 4.91517C7.35041 4.73118 8.78525 4.79922 9.27379 4.70544C9.73269 4.8533 8.33419 5.19045 9.97254 5.2239L10.2618 4.76068C10.8843 4.80546 9.98736 5.10308 11.3432 4.95332C10.6227 5.21558 11.5831 5.32392 9.7535 5.44665C11.971 5.7796 13.1153 5.15226 14.824 4.93178C14.6476 4.96714 14.6335 5.02062 14.4571 5.05598C14.9593 4.94912 15.4746 4.88305 15.9894 4.87085C17.1262 4.94383 15.1066 5.10153 15.4033 5.2178L17.2322 5.16241C17.2727 5.17705 17.2726 5.19051 17.2726 5.19051C17.6257 5.09285 18.0186 5.07717 18.3833 5.16844C17.8535 5.3284 17.6351 5.4838 17.2815 5.62186L19.1814 5.25866C18.9766 5.41445 20.7772 5.4795 19.4213 5.62926L22.2532 5.49483L22.5073 5.79849C23.1852 5.7236 23.1993 5.67012 22.387 5.64685C23.3617 5.68824 26.66 4.98789 26.1793 5.62076C28.4037 5.30727 29.2019 5.38402 31.8993 5.1649C29.8371 5.50999 34.2932 5.46249 32.0972 5.65555C32.964 5.65344 33.8184 5.54319 34.6602 5.33829C35.6206 5.44663 35.211 5.75821 34.1802 5.90382L35.3873 5.73632L35.3731 5.80327L36.418 5.60418C37.5404 5.75758 36.6586 5.90745 37.8094 5.94041L38.0425 5.66419L38.8265 5.80789C38.5298 5.69161 39.2077 5.61673 40.0342 5.58652L40.0199 5.65347L41.0363 5.58828C40.0322 5.77506 41.9704 5.6285 41.5076 5.84427C42.3744 5.84215 42.3879 5.84254 43.9597 5.76632L43.6773 5.58309C45.7108 5.38538 43.7692 5.85516 45.4215 5.8486L45.3155 5.63002C47.7091 5.95454 49.3542 5.35502 51.1127 5.55358C50.1098 5.61915 50.3645 5.86894 50.3923 5.80238C51.9102 5.69767 54.3748 5.71438 55.9354 5.42228C56.6491 5.80646 57.4733 5.99173 58.2729 5.9338C59.4515 5.9002 59.6144 5.86445 59.9956 5.6733C61.1067 5.62429 62.2169 5.65609 63.3261 5.78216C63.5853 5.60099 64.3551 5.79817 64.9663 5.64054L65.1008 5.72523L64.9948 5.50664C67.0215 5.95537 68.384 5.17263 70.4249 5.56788L70.072 5.6386L70.9262 5.54182C71.0606 5.63997 70.7214 5.69762 70.6795 5.81766L74.6478 5.79661L73.864 5.63944C74.6373 5.5134 75.4231 5.48203 76.2218 5.51837C74.6471 5.86395 77.5355 5.51559 77.8037 5.76576L76.9495 5.86254C78.1145 5.82855 78.1145 5.82855 78.0085 5.60997C79.5127 5.51834 79.0605 6.01731 80.4446 5.76057L79.456 5.7592C79.1594 5.62946 79.8656 5.44761 80.5291 5.45315C80.6913 5.48474 81.1643 5.57911 80.6494 5.60478C81.8423 5.50423 83.6288 5.60929 84.1444 5.51629C84.7939 5.5753 84.5891 5.7311 84.2364 5.78835C86.7711 5.57805 85.3872 5.82132 87.9356 5.59794L87.8937 5.71798L88.7621 5.56772L90.0189 5.81927L89.5737 5.65833C90.3464 5.58616 91.1321 5.56825 91.9038 5.59035L91.509 5.78112C93.8668 5.66005 94.2418 6.06147 96.4792 5.78877C96.6279 5.81997 96.2887 5.87761 96.1123 5.91297C98.1876 5.60868 97.6935 6.22769 99.7695 5.85606C99.6469 5.91991 99.8764 5.99384 99.7946 6.04539L100.744 5.92439L100.673 6.17833L101.436 5.80949L102.029 6.0555L102.396 5.9313C103.42 6.39173 104.846 6.02842 106.251 6.36504L106.011 6.06178C109.499 5.36685 114.039 6.34561 118.267 6.03564L118.197 6.27612L119.947 6.01639C120.893 6.20515 119.389 6.22944 119.686 6.35918C121.556 6.21068 120.462 5.99072 122.63 5.90463C123.752 6.07149 122.248 6.09578 121.719 6.17493C123.874 6.00764 126.042 5.94848 128.208 6.024C128.235 5.99784 128.331 5.94668 128.25 5.93089C129.605 5.82153 131.405 5.91351 132.895 5.90229C132.853 6.02234 132.487 6.0388 132.122 6.05527C132.703 6.11235 133.286 6.10209 133.855 6.0241L133.298 6.23715C134.504 6.15046 135.723 6.17189 136.927 6.31414C136.792 6.21599 136.835 6.02861 137.837 6.04384C138.388 6.42336 140.534 5.8786 142.13 6.0725C141.939 6.16134 140.774 6.18186 141.099 6.19117C141.844 6.23943 142.589 6.16649 143.309 5.98503L143.104 6.14082L146.817 5.91039C147.382 6.2903 150.312 5.83536 150.065 6.1112C151.393 6.12227 148.957 5.94473 150.623 5.89815C151.068 6.05909 152.141 5.82038 152.07 6.07432L151.894 6.09622L153.059 6.0757L152.325 6.31064C153.328 6.25853 154.075 6.02398 154.118 5.8366C155.039 5.8495 155.959 5.92974 156.878 6.07732L156.525 6.13457C159.208 6.03628 160.987 6.80125 163.091 6.38999C163.253 6.42158 163.225 6.48814 162.9 6.47883L164.566 6.4996L164.171 6.6769L166.91 6.39161L166.882 6.51204C168.696 6.56401 171.527 6.49691 173.857 6.46934L173.504 6.5266C176.052 6.34362 175.968 6.65105 177.824 6.51563C177.77 6.54101 177.702 6.56601 177.634 6.56407L179.314 6.55829L178.947 6.68249C179.882 6.62845 180.802 6.66828 181.735 6.80278C182.454 6.72906 183.16 6.58762 183.852 6.39191C185.681 6.37693 184.298 6.55285 185.434 6.65277C186.761 6.66384 186.98 6.45456 188.78 6.56001L188.752 6.68044C189.592 6.66408 190.107 6.57108 191.272 6.56402L190.919 6.62128C192.818 6.36582 193.299 6.99929 194.781 6.46245C195.579 6.56614 197.096 6.50183 197.026 6.74231C199.398 6.59469 201.24 6.52622 203.597 6.44556C203.986 6.84736 204.099 6.4195 205.532 6.66262L205.426 6.44404C208.757 6.4317 212.584 6.98587 216.255 6.91589L216.361 7.13447L217.095 6.89953C221.048 7.02623 226.166 7.11895 229.322 7.15544C230.719 6.95296 232.142 6.85901 233.563 6.89973L233.387 6.93509C236.246 6.82837 239.253 6.76631 242.366 6.92285C242.175 7.01169 242.486 7.07448 242.134 7.13174C242.961 7.00725 243.801 7.01782 244.625 7.14922L243.842 6.97858C244.71 6.84179 245.603 6.89432 246.454 7.1477L247.851 6.91829C247.946 6.93448 248.081 6.97876 248.107 7.00647L248.352 6.89224L249.094 7.18292C250.029 7.14234 250.965 7.02095 251.874 6.80452C252.009 6.90267 253.322 6.98069 252.305 7.03241L257.423 7.16553L256.625 7.06185C256.519 6.84326 258.064 6.72586 258.849 6.82916C257.804 7.00131 258.764 7.13659 259.209 7.29753C259.901 7.18263 258.602 7.105 258.969 6.98079C260.027 6.83596 261.097 6.79926 262.153 6.88338L261.637 6.96292C262.83 6.8893 263.381 7.28229 264.546 7.26177C265.59 7.08962 266.374 7.27372 266.148 6.89004C267.665 6.82573 266.741 7.14952 267.228 7.19041C268.259 7.04481 269.315 7.10199 270.341 7.34694C271.173 6.80496 274.429 7.58527 274.745 7.13629L275.988 7.41438C276.03 7.29434 276.277 7.0185 277.279 6.97986C278.226 7.12821 278.007 7.33749 278.303 7.46723L278.945 7.01409C284.437 7.57556 291.672 7.32475 297.693 7.79361C300.376 7.72225 303.763 7.56332 306.89 7.67983L306.538 7.73709L309.651 7.90709L307.392 7.66724C308.069 7.6193 308.598 7.54015 309.262 7.55915C313.321 7.90444 317.396 8.02117 321.46 7.92203C324.187 7.43433 323.27 8.41842 325.887 8.0623C325.67 8.10997 325.574 8.18806 325.384 8.2365C328.203 8.10168 329.72 8.03737 332.54 7.76788C332.223 8.28419 334.368 7.77983 334.121 8.05567L334.354 7.84678C334.975 7.98583 336.451 8.05503 336.246 8.21082L337.495 7.96368L337.601 8.18227C339.252 8.22958 342.788 8.11531 343.65 8.57109C347.729 8.31073 354.174 8.52226 359.291 8.69578C360.417 8.55289 361.541 8.50427 362.678 8.53684L363.921 8.81494C365.102 8.6332 366.28 8.58613 367.472 8.64719C367.471 8.67413 367.417 8.69951 367.335 8.71065C368.499 8.77093 369.664 8.75042 370.817 8.62177C372.144 8.65977 373.428 8.83129 373.02 9.06207C373.146 8.6346 375.822 9.18275 375.822 9.18275C375.822 9.18275 392.799 9.76332 411.849 10.1608C430.9 10.5583 452.025 10.7862 460.309 9.93224C460.785 9.7438 462.153 9.66176 461.669 9.39192C462.062 9.37623 462.467 9.4148 462.846 9.51993C462.954 9.54997 463.062 9.56654 463.17 9.58311C463.211 9.58427 463.251 9.58543 463.292 9.57313C463.305 9.57352 463.333 9.56082 463.346 9.56121L463.373 9.54852L463.387 9.53544C463.528 9.06795 463.654 8.60008 463.795 8.11912C463.668 8.5466 463.542 8.98754 463.429 9.4154C463.387 9.57584 463.401 9.50889 463.401 9.52236L463.374 9.52159L463.347 9.52081L463.293 9.51926L463.184 9.50269C463.13 9.48767 463.076 9.48612 463.022 9.45763C462.941 9.42837 462.901 9.40027 462.874 9.37256C462.834 9.30406 462.916 9.23905 462.985 9.17365C463.135 9.02977 463.313 8.8732 462.583 8.71759L463.558 8.7051C463.79 8.56355 462.203 8.81447 462.504 8.56711L462.161 8.94798C461.66 8.92016 461.174 8.81193 460.715 8.6102C459.736 9.01324 458.665 9.13075 457.61 8.96582L458.125 8.95362C456.622 8.92405 457.207 8.67137 456.896 8.59511L457.235 8.60481L455.978 8.36673C456.938 8.52894 458.525 8.26456 457.699 8.25437C455.913 8.08197 458.158 8.36183 456.818 8.37731C455.978 8.36673 456.224 8.1717 456.252 8.0378L454.749 8.00822C454.805 7.82122 455.738 8.05 455.13 7.844L453.233 7.97825C452.886 7.49681 451.173 8.13479 450.324 7.66593C451.679 7.59697 450.204 7.50083 450.422 7.35889L447.092 7.29042C446.781 7.21417 447.973 7.16749 447.458 7.17969C446.999 7.1261 446.538 7.15332 446.09 7.24826C445.807 7.11891 443.612 7.19076 443.697 6.88333C441.438 6.61656 442.745 7.24675 440.635 7.01117C440.366 6.81487 442.3 7.005 441.368 6.7897L439.188 6.7946C439.556 6.57612 440.003 6.49464 440.436 6.56092C434.536 6.14943 431.364 5.08863 425.96 5.20325C425.204 4.96605 426.503 5.07062 427.046 4.93799C423.13 5.13567 421.554 4.30918 418.223 4.25418L418.167 4.44118C413.529 3.75599 407.947 3.98678 402.709 3.62122L403.331 3.76027C402.422 3.88243 401.5 3.9638 400.579 3.97783C400.445 3.87968 401.206 3.59164 399.689 3.64248C400 3.71874 400.649 3.80469 400.459 3.88007C395.955 3.29303 386.448 3.22281 379.058 2.84946C369.05 2.77836 358.195 2.2384 348.363 2.18581C349.866 2.20192 349.225 2.64159 348.089 2.51474C344.996 1.68522 342.739 2.5501 339.576 1.97453C333.846 2.12024 328.734 1.38108 323.42 1.90244L323.314 1.68386C322.691 1.63909 322.082 1.64857 321.471 1.72539L321.486 1.65844C319.51 1.54795 317.124 1.73558 315.988 1.60874L315.918 1.84921C314.739 1.85588 315.31 1.65668 314.104 1.77031L314.132 1.64988L312.735 1.86582C312.875 1.43874 309.431 1.78467 308.485 1.56897C306.968 1.61981 304.095 1.76655 301.794 1.64675C300.117 1.41012 298.44 1.28123 296.747 1.25969C293.239 1.28046 288.242 1.2855 283.787 1.15792L283.866 1.44306L282.701 1.45011C282.715 1.38316 282.566 1.35196 282.729 1.32968C281.825 1.00741 280.047 1.40104 279.101 1.18535C279.694 1.44483 279.913 1.23555 280.577 1.25455C281.537 1.4033 280.626 1.66013 279.328 1.5017L279.356 1.43513L278.474 1.57154C278.382 1.35334 277.57 1.2358 277.478 1.01761C273.645 1.02907 271.041 1.3721 267.088 1.21846C267.497 0.974214 264.244 1.24477 265.034 0.836297C262.662 0.970446 265.423 1.18423 264.35 1.47682C263.686 1.45782 262.994 1.57271 262.874 1.42108C263.187 1.32226 262.335 1.16315 262.877 1.12479L261.292 1.14676C261.144 1.11556 261.497 1.0583 261.659 1.03602C258.434 1.25348 255.921 0.709984 253.033 0.937137C252.815 1.09254 254.184 0.997036 253.979 1.13936C251.065 1.41961 251.396 0.849812 248.685 1.0416L249.242 0.842022C248.36 1.05923 247.438 1.11367 246.532 0.979943C246.278 0.730159 247.753 0.785896 248.445 0.670998C247.457 0.656156 244.937 0.691767 245.707 0.929352C244.948 0.961506 244.19 0.885919 243.434 0.702591C243.42 0.769541 244.543 0.882534 243.851 0.983964C242.227 0.829688 239.736 0.812203 237.759 0.78252C237.773 0.71557 237.638 0.630887 237.815 0.595525C236.227 0.913777 236.395 0.352793 234.201 0.397711" fill="#F2304B"/>
</svg>
